<?xml version="1.0" encoding="utf-8"?>
<!-- Generator: Adobe Illustrator 27.5.0, SVG Export Plug-In . SVG Version: 6.00 Build 0)  -->
<svg version="1.1" id="Calque_3" xmlns="http://www.w3.org/2000/svg" xmlns:xlink="http://www.w3.org/1999/xlink" x="0px" y="0px"
	 viewBox="0 0 671.7 665.3" style="enable-background:new 0 0 671.7 665.3;" xml:space="preserve">
<g>
	<path d="M440,368.4c-125.4,0-228.7,133.3-231.7,297h463.4C668.7,501.7,565.4,368.4,440,368.4z"/>
	<path d="M516.1,153.9l-96.7,96.7c-23.5,23.9-51.3,43-82.4,55.8c25.4,28.4,62.1,46.2,103,46.2c76.6,0,138.7-62.6,138.7-139.9
		S516.6,72.7,440,72.7c-1.7,0-3.3,0-5,0.1L516.1,153.9L516.1,153.9L516.1,153.9z"/>
</g>
<g>
	<path d="M401.6,65.9C361.1,25.2,306.7,0,244.8,0S128.4,25.2,87.9,65.9L0,153.9l0,0L87.2,241c40.6,41.1,95.2,66.7,157.5,66.7
		s117-25.5,157.5-66.7l87.2-87.2l0,0L401.6,65.9L401.6,65.9z M244.8,279.7c-69.5,0-125.9-56.4-125.9-125.9S175.2,28,244.8,28
		s125.9,56.4,125.9,125.9S314.3,279.7,244.8,279.7L244.8,279.7z"/>
	<path d="M244.8,97.9c-2.1,0-4.2,0.1-6.2,0.4c0.6,0.5,1.1,1,1.7,1.6c13.7,13.7,13.7,35.8,0,49.4c-13.7,13.7-35.8,13.7-49.4,0
		c-0.5-0.5-1.1-1.1-1.6-1.7c-0.2,2.1-0.4,4.1-0.4,6.2c0,30.9,25.1,55.9,55.9,55.9s55.9-25.1,55.9-55.9S275.7,97.9,244.8,97.9z"/>
</g>
</svg>
