<?xml version="1.0" encoding="utf-8"?>
<!-- Generator: Adobe Illustrator 27.5.0, SVG Export Plug-In . SVG Version: 6.00 Build 0)  -->
<svg version="1.1" xmlns="http://www.w3.org/2000/svg" xmlns:xlink="http://www.w3.org/1999/xlink" x="0px" y="0px"
	 viewBox="0 0 838 670" style="enable-background:new 0 0 838 670;" xml:space="preserve">
<g id="Calque_2">
</g>
<g id="Layer_1">
	<g>
		<g>
			<g>
				<path d="M566.85,351.23h-28.62C388.43,351.23,267,472.64,267,622.41v0c0,26.45,21.45,47.89,47.9,47.89h475.27
					c26.46,0,47.9-21.44,47.9-47.89v0C838.07,472.64,716.64,351.23,566.85,351.23z"/>
				<ellipse cx="552.54" cy="170.92" rx="162.66" ry="159.05"/>
			</g>
		</g>
	</g>
	<polygon points="221.43,232.5 221.43,101 130.2,101 130.2,232.5 0.2,232.5 0.2,321.98 130.2,321.98 130.2,454.05 221.43,454.05 
		221.43,321.98 349.3,321.98 349.3,232.5 	"/>
</g>
</svg>
