<?xml version="1.0" encoding="utf-8"?>
<!-- Generator: Adobe Illustrator 27.5.0, SVG Export Plug-In . SVG Version: 6.00 Build 0)  -->
<svg version="1.1" id="Calque_1" xmlns="http://www.w3.org/2000/svg" xmlns:xlink="http://www.w3.org/1999/xlink" x="0px" y="0px"
	 viewBox="0 0 256 256" style="enable-background:new 0 0 256 256;" xml:space="preserve">
<g id="Layer_1_00000021824027953072672030000012853932954049552312_">
</g>
<path d="M118.73,1.1c24.42-1.74,49.51,3.37,70.87,15.49c32.1,17.65,55.84,49.63,63.24,85.54c5.41,26.85,2.59,55.53-9.11,80.41
	c-19.89,43.23-65.95,73.58-113.82,72.6c-43.56,1.77-86.7-22.12-109.42-59.15C6.24,173-1.15,145.54,0.83,118.51
	c1.43-23.54,9.72-46.63,23.73-65.62C46.27,22.91,81.78,3.35,118.73,1.1L118.73,1.1z M203.3,52.62
	c-11.43,12.52-22.53,25.37-33.39,38.4c6.65,7.68,10.91,16.91,14.12,26.45c11.79-1.95,23.66-3.43,35.45-5.43
	c5.25-0.88,10.84-1.1,15.56-3.77c2.97-1.98,2.43-5.99,1.43-8.88c-5.16-17.25-13.43-34-26.24-46.85
	C208.61,50.13,204.81,50.1,203.3,52.62L203.3,52.62z M121.46,87.07C102.47,89.62,87,106.76,86,125.82
	c-2.37,23.75,18.78,45.91,42.41,45.81c21.69,0.57,42.29-18.26,42.19-40.25C171.92,105.92,146.69,82.96,121.46,87.07L121.46,87.07z
	 M31.66,162.79c-2.89,0.89-7.62,1.67-7.41,5.61c6.56,16.86,16.97,32.36,30.43,44.48c2.34,2.43,6.04,1.01,7.62-1.51
	c9.66-12.82,19.44-25.55,29.08-38.37c-6.32-6.37-11.37-13.77-15.74-21.57C60.94,155.04,46.39,159.24,31.66,162.79L31.66,162.79z"/>
</svg>
