<?xml version="1.0" encoding="utf-8"?>
<!-- Generator: Adobe Illustrator 27.5.0, SVG Export Plug-In . SVG Version: 6.00 Build 0)  -->
<svg version="1.1" id="Calque_3" xmlns="http://www.w3.org/2000/svg" xmlns:xlink="http://www.w3.org/1999/xlink" x="0px" y="0px"
	 viewBox="0 0 671.7 670" style="enable-background:new 0 0 671.7 670;" xml:space="preserve">
<style type="text/css">
	.st0{fill:none;}
</style>
<g>
	<path class="st0" d="M244.8,33.8c-69.5,0-125.9,56.4-125.9,125.9s56.4,125.9,125.9,125.9c69.5,0,125.9-56.4,125.9-125.9
		S314.3,33.8,244.8,33.8z M244.8,215.6c-30.9,0-55.9-25-55.9-55.9c0-2.1,0.1-4.2,0.4-6.3c-12.1-13.7-11.6-34.7,1.5-47.8
		s34.1-13.6,47.8-1.5c2.1-0.2,4.1-0.4,6.3-0.4c30.9,0,55.9,25,55.9,55.9C300.7,190.6,275.7,215.6,244.8,215.6z"/>
	<g>
		<path d="M401.6,71.8C361.1,31.1,306.7,5.8,244.8,5.8S128.4,31.1,88,71.8L0,159.7v0l87.2,87.2c40.6,41.1,95.2,66.7,157.5,66.7
			c62.3,0,117-25.5,157.5-66.7l87.2-87.2v0L401.6,71.8z M244.8,285.5c-69.5,0-125.9-56.4-125.9-125.9S175.3,33.8,244.8,33.8
			c69.5,0,125.9,56.4,125.9,125.9S314.3,285.5,244.8,285.5z"/>
	</g>
	<g>
		<path d="M244.8,103.7c-2.1,0-4.2,0.1-6.3,0.4c0.6,0.5,1.1,1,1.7,1.5c13.7,13.7,13.7,35.8,0,49.5c-13.7,13.7-35.8,13.7-49.5,0
			c-0.5-0.5-1-1.1-1.5-1.7c-0.2,2.1-0.4,4.1-0.4,6.3c0,30.9,25,55.9,55.9,55.9c30.9,0,55.9-25,55.9-55.9
			C300.7,128.8,275.7,103.7,244.8,103.7z"/>
	</g>
</g>
<g>
	<path class="st0" d="M222.8,484.6c-5.8,1.8-15.3,3.3-14.9,11.3c13.2,33.8,34,64.9,61,89.2c4.7,4.9,12.1,2,15.3-3
		c19.4-25.7,39-51.2,58.3-77c-12.7-12.8-22.8-27.6-31.6-43.3C281.5,469,252.3,477.5,222.8,484.6z"/>
	<path class="st0" d="M402.9,332.7c-38.1,5.1-69.1,39.5-71.1,77.7c-4.8,47.6,37.7,92.1,85.1,91.9c43.5,1.1,84.8-36.6,84.6-80.7
		C504.1,370.5,453.5,324.5,402.9,332.7z"/>
	<path class="st0" d="M239.4,155.2c15.6-15.6,15.6-40.9,0-56.6c-0.6-0.6-1.3-1.2-1.9-1.8c-15.7-13.8-39.7-13.2-54.7,1.8
		c-15,15-15.6,38.9-1.8,54.7c0.6,0.6,1.2,1.3,1.8,1.9C198.4,170.9,223.7,170.9,239.4,155.2z"/>
	<path class="st0" d="M581,263.4c-3.2-4.8-10.9-4.9-13.9,0.2c-22.9,25.1-45.2,50.9-67,77c13.3,15.4,21.9,33.9,28.3,53.1
		c23.6-3.9,47.5-6.9,71.1-10.9c10.5-1.8,21.7-2.2,31.2-7.6c6-4,4.9-12,2.9-17.8C623.2,322.8,606.7,289.2,581,263.4z"/>
	<path d="M666.4,362.9c-14.8-72-62.5-136.2-126.8-171.6c-10-5.7-20.4-10.6-31.2-14.7l-83.7,83.6c-46.4,47-108.9,76.2-180.2,76.2
		c-24.3,0-47.5-3.4-69.4-9.7c-8,22.2-12.8,45.5-14.3,69c-4,54.2,10.9,109.3,39.4,155.4c45.6,74.3,132.1,122.2,219.5,118.6
		c96,2,188.4-58.9,228.3-145.6C671.6,474.3,677.3,416.8,666.4,362.9z M284.2,582c-3.2,5.1-10.6,7.9-15.3,3
		c-27-24.3-47.9-55.4-61-89.2c-0.4-7.9,9.1-9.5,14.9-11.3c29.5-7.1,58.7-15.5,88.2-22.8c8.8,15.6,18.9,30.5,31.6,43.3
		C323.2,530.8,303.6,556.3,284.2,582z M501.5,421.6c0.2,44.1-41.1,81.9-84.6,80.7c-47.4,0.2-89.8-44.2-85.1-91.9
		c2-38.2,33-72.6,71.1-77.7C453.5,324.5,504.1,370.5,501.5,421.6z M630.7,375.2c-9.5,5.4-20.7,5.8-31.2,7.6
		c-23.6,4-47.5,7-71.1,10.9c-6.4-19.1-15-37.6-28.3-53.1c21.8-26.1,44-51.9,67-77c3-5.1,10.7-5,13.9-0.2
		c25.7,25.8,42.3,59.4,52.6,94C635.6,363.2,636.7,371.3,630.7,375.2z"/>
	<path class="st0" d="M244.6,16.5c-79.5,0-144,64.5-144,144c0,60.1,36.9,111.6,89.2,133.2c5.5-10.3,11.7-20.2,18.6-29.5
		c10.5-14.5,22.6-27.8,36-39.7c-35.3,0-63.9-28.7-63.9-64c0-2.4,0.1-4.8,0.4-7.2c-13.8-15.7-13.2-39.7,1.8-54.7
		c15-15,38.9-15.6,54.7-1.8c2.3-0.3,4.7-0.4,7.2-0.4c35.3,0,64,28.6,64,64c0,8.7-1.7,17-4.9,24.6c26.6-12.9,55.4-21.2,84.9-24.1
		c0-0.2,0-0.3,0-0.5C388.6,81,324.1,16.5,244.6,16.5z"/>
</g>
</svg>
