<?xml version="1.0" encoding="utf-8"?>
<!-- Generator: Adobe Illustrator 27.5.0, SVG Export Plug-In . SVG Version: 6.00 Build 0)  -->
<svg version="1.1" id="Calque_1" xmlns="http://www.w3.org/2000/svg" xmlns:xlink="http://www.w3.org/1999/xlink" x="0px" y="0px"
	 viewBox="0 0 256 256" style="enable-background:new 0 0 256 256;" xml:space="preserve">
<path d="M255.52,6.92c-0.04-3.79-2.33-5.83-5.97-5.33c-13.31,1.86-26.62,3.73-39.92,5.66c-12.93,1.87-51.44,7.52-64.36,9.44
	c-4.93,0.73-9.87,1.41-14.78,2.24c-2.84,0.48-4.34,2.32-4.4,5.23c-0.07,3.52-0.07,7.04-0.06,10.56c0.01,9.69,0.02,21.09,0.02,32.88
	c-13.79,2.01-27.58,4.08-41.36,6.13c-5.97,0.89-11.95,1.71-17.9,2.71c-3.44,0.58-5.25,2.82-5.33,6.33
	c-0.09,4.26-0.08,8.53-0.08,12.79c0.02,30.41,0.06,60.81,0.06,91.22c0,0.77,0.36,1.67-0.43,2.28c-0.65-0.01-1.02-0.45-1.46-0.77
	c-8.89-6.45-18.79-8.7-29.42-6.45c-24.64,5.21-36.91,32.94-23.87,55.25c7.33,12.55,18.84,18.51,33.12,17.89
	c13.89-0.61,24.11-7.83,30.84-20.06c3.28-5.96,4.42-12.45,4.41-19.27c-0.06-31.24-0.02-62.48-0.01-93.72c0-2.56,0-2.6,2.45-2.98
	c14.82-2.27,29.64-4.55,44.47-6.76c16.09-2.41,32.19-4.76,48.29-7.12c4.12-0.6,3.81-0.97,3.88,3.4c0.34,20.76-0.03,41.53,0.06,62.3
	c0,0.55,0.05,1.12-0.42,1.97c-1.22-0.8-2.26-1.51-3.33-2.18c-12.11-7.6-24.76-8.46-37.31-1.81c-12.92,6.84-19.07,18.54-19.18,33.02
	c-0.17,22.37,18.21,37.71,37.54,36.75c13.35-0.67,23.46-6.95,30.35-18.52c4.29-7.2,5.71-15.09,5.7-23.43
	c-0.05-37.92,0.02-75.83,0.06-113.75c0-5.47,0.08-10.94,0.02-16.41c-0.05-4.59-2.82-7.06-7.23-6.45c-14.34,2-28.68,4.02-43.01,6.08
	c0-3.31,0-6.5,0-9.53c0-2.11,0-2.15,2.02-2.46c12.24-1.87,50.07-7.46,62.31-9.29c13.29-1.99,26.58-3.93,39.87-5.88
	c3.4-0.5,3.15-0.8,3.2,2.8c0.28,17.15-0.03,45.78,0.05,62.93c0,0.46,0.04,0.92-0.35,1.63c-1.01-0.66-1.87-1.25-2.75-1.8
	c-10-6.28-20.44-6.99-30.81-1.49c-10.67,5.65-15.75,15.31-15.84,27.26c-0.14,18.47,15.03,31.14,31,30.34
	c11.02-0.55,19.37-5.74,25.06-15.29c3.54-5.94,4.71-12.46,4.7-19.35c-0.04-31.31,0.02-74.1,0.05-105.41
	C255.51,15.95,255.57,11.43,255.52,6.92z"/>
</svg>
