<?xml version="1.0" encoding="utf-8"?>
<!-- Generator: Adobe Illustrator 27.5.0, SVG Export Plug-In . SVG Version: 6.00 Build 0)  -->
<svg version="1.1" id="Calque_1" xmlns="http://www.w3.org/2000/svg" xmlns:xlink="http://www.w3.org/1999/xlink" x="0px" y="0px"
	 viewBox="0 0 256 256" style="enable-background:new 0 0 256 256;" xml:space="preserve">
<g id="Layer_1_00000021824027953072672030000012853932954049552312_">
</g>
<g>
	<path d="M80.74,152.54c-43.26,0-78.9,45.99-79.94,102.46h159.88C159.64,198.53,124,152.54,80.74,152.54z"/>
	<path d="M80.74,147.07c26.44,0,47.86-21.61,47.86-48.27c0-26.66-21.43-48.27-47.86-48.27c-26.43,0-47.86,21.61-47.86,48.27
		C32.88,125.46,54.31,147.07,80.74,147.07z"/>
	<path d="M195.71,75.43c-32.22,0-58.76,33.54-59.54,74.73h119.08C254.47,108.98,227.93,75.43,195.71,75.43z"/>
	<path d="M195.71,71.45c19.28,0,34.91-15.76,34.91-35.21c0-19.44-15.63-35.21-34.91-35.21c-19.28,0-34.9,15.76-34.9,35.21
		C160.8,55.68,176.43,71.45,195.71,71.45z"/>
</g>
</svg>
