<?xml version="1.0" encoding="utf-8"?>
<!-- Generator: Adobe Illustrator 27.5.0, SVG Export Plug-In . SVG Version: 6.00 Build 0)  -->
<svg version="1.1" id="Calque_1" xmlns="http://www.w3.org/2000/svg" xmlns:xlink="http://www.w3.org/1999/xlink" x="0px" y="0px"
	 viewBox="0 0 256 256" style="enable-background:new 0 0 256 256;" xml:space="preserve">
<g id="Layer_1_00000021824027953072672030000012853932954049552312_">
</g>
<g>
	<path d="M84.22,38.86c-3.54,0-6.41,2.84-6.41,6.34v35.41l-18.91,18.7c-2.5,2.48-2.5,6.49,0,8.96c2.5,2.48,6.56,2.48,9.07,0
		l20.78-20.54c0.04-0.04,0.08-0.08,0.12-0.13l0.04-0.04l0.07-0.07l0.06-0.06l0.05-0.05l0.07-0.08l0.03-0.04l0.07-0.09l0.02-0.03
		c0.03-0.03,0.05-0.06,0.07-0.1l0.02-0.03l0.07-0.1l0.02-0.03c0.03-0.04,0.05-0.08,0.08-0.11l0,0c0.03-0.04,0.05-0.08,0.08-0.12
		l0.01-0.02c0.03-0.04,0.05-0.08,0.08-0.12l0,0c0.03-0.04,0.05-0.08,0.08-0.13l0-0.01c0.02-0.04,0.05-0.08,0.07-0.12l0.01-0.01
		l0.06-0.11l0.02-0.04l0.05-0.1l0.02-0.04l0.04-0.09l0.03-0.06l0.03-0.07l0.04-0.09l0.01-0.03c0.02-0.04,0.03-0.08,0.05-0.12l0-0.01
		c0.02-0.04,0.03-0.09,0.05-0.13l0-0.01c0.22-0.61,0.34-1.26,0.36-1.94c0-0.05,0-0.1,0-0.15l0,0V45.2
		C90.63,41.7,87.76,38.86,84.22,38.86z"/>
	<path d="M254.97,59.52c-0.06-4.77-3.01-7.34-7.7-6.7c-17.17,2.34-34.34,4.69-51.51,7.12c-9.98,1.41-19.96,2.85-29.94,4.3
		c-3.61-15.13-11.44-28.64-22.19-39.27C128.56,10.05,107.71,0.83,84.69,0.83c-23.02,0-43.86,9.22-58.95,24.14
		C10.66,39.88,1.33,60.48,1.33,83.24c0,22.76,9.33,43.36,24.42,58.27c15.09,14.91,35.93,24.14,58.95,24.14
		c13.01,0,25.32-2.95,36.29-8.2c0.01,9.06,0.01,18.11,0.02,27.17c0,0.8,0.38,1.73-0.46,2.37c-0.69-0.01-1.09-0.47-1.56-0.8
		c-9.47-6.7-20.02-9.04-31.34-6.71c-26.26,5.42-39.32,34.22-25.44,57.4c7.81,13.04,20.07,19.24,35.29,18.59
		c14.8-0.63,25.69-8.13,32.86-20.84c3.49-6.19,4.71-12.94,4.7-20.02c-0.07-32.46-0.02-64.92-0.01-97.38c0-2.65,0-2.7,2.61-3.09
		c4.25-0.63,8.5-1.27,12.75-1.9c0.23,0.19,0.47,0.38,0.7,0.57c-0.01-0.02-0.02-0.04-0.04-0.06c-0.21-0.17-0.4-0.34-0.6-0.51
		c11.52-1.72,23.04-3.43,34.56-5.11c17.14-2.5,34.3-4.95,51.45-7.4c4.38-0.63,4.06-1,4.13,3.53c0.36,21.57-0.03,43.15,0.06,64.73
		c0,0.58,0.05,1.16-0.45,2.05c-1.3-0.83-2.41-1.57-3.55-2.27c-12.9-7.9-26.37-8.79-39.75-1.88c-13.76,7.11-20.32,19.27-20.44,34.3
		c-0.18,23.24,19.4,39.19,40,38.18c14.22-0.69,24.99-7.22,32.34-19.24c4.57-7.48,6.08-15.68,6.07-24.34
		c-0.05-39.39,0.03-78.79,0.06-118.18C254.96,70.89,255.04,65.2,254.97,59.52z M145.76,67.15c-6.36,0.92-12.73,1.78-19.07,2.82
		c-3.67,0.6-5.6,2.93-5.67,6.58c-0.09,4.43-0.08,8.86-0.08,13.29c0.01,17.73,0.03,35.47,0.04,53.2c-8.87,5.27-19.01,8.68-29.87,9.65
		v-11.59c0-3.5-2.87-6.34-6.41-6.34c-3.54,0-6.41,2.84-6.41,6.34v11.59c-14.66-1.31-28.03-7.05-38.72-15.86l8.29-8.19
		c2.5-2.48,2.5-6.49,0-8.97c-2.5-2.48-6.56-2.48-9.07,0l-8.29,8.19c-8.91-10.57-14.72-23.78-16.04-38.28h11.73
		c3.54,0,6.41-2.84,6.41-6.34c0-3.5-2.87-6.34-6.41-6.34H14.45c1.32-14.5,7.13-27.71,16.04-38.28l8.29,8.19
		c2.5,2.48,6.56,2.48,9.07,0c2.5-2.48,2.5-6.49,0-8.97l-8.29-8.19c10.69-8.81,24.06-14.55,38.72-15.86v11.59
		c0,3.5,2.87,6.34,6.41,6.34c3.54,0,6.41-2.84,6.41-6.34V13.79c14.66,1.31,28.03,7.05,38.72,15.86l-8.29,8.19
		c-2.5,2.48-2.5,6.49,0,8.97c2.5,2.48,6.56,2.48,9.07,0l8.29-8.19c6.64,7.87,11.56,17.22,14.18,27.47
		C150.64,66.44,148.2,66.79,145.76,67.15z"/>
</g>
</svg>
