<?xml version="1.0" encoding="utf-8"?>
<!-- Generator: Adobe Illustrator 27.5.0, SVG Export Plug-In . SVG Version: 6.00 Build 0)  -->
<svg version="1.1" xmlns="http://www.w3.org/2000/svg" xmlns:xlink="http://www.w3.org/1999/xlink" x="0px" y="0px"
	 viewBox="0 0 126.46 126.46" style="enable-background:new 0 0 126.46 126.46;" xml:space="preserve">
<style type="text/css">
	.st0{display:none;}
	.st1{display:inline;fill:#939393;}
</style>
<g id="Calque_2" class="st0">
	<rect class="st1" width="126.46" height="126.46"/>
</g>
<g id="Calque_1">
	<g>
		<path d="M65.02,68.04c2.45-1.2,2.68-3.37,2.67-3.39c0,0-1,2.53-3.64,3.14c-4.1,1.29-8,0.49-11.7-1.18
			c-5-2.25-9.63-6.69-11.64-9.01c-9.59-11.12-10.23-23.4-10.23-23.4L0.87,13.91C0.87,13.91,36.82,80.48,65.02,68.04z"/>
		<path d="M88.03,28.48C49.01,41.75,57.71,63.15,58.99,63.87c0,0-4.54-7.98,6.88-17.01c6.42-4.71,14.07-6.79,22.36-7.41
			c6.94-0.52,13.85-0.27,20.72,0.62c0.71,0.09,1.15,0.15,1.15,0.15c1.51-2.42,15.1-23.53,16.37-25.64
			C126.46,14.57,96.28,25.66,88.03,28.48z"/>
		<path d="M66.88,58.14c3.85,2.18,12.6,10.58,5.73,26.05c-4.57,10.82-14.05,20.67-14.05,20.67c1.85,2.98,2.93,4.32,4.75,7.31
			c0.11,0.18,0.25,0.34,0.46,0.62c1.41-2.19,2.74-4.27,4.06-6.35c4.34-6.83,12.21-19.22,12.21-19.22
			C82.74,62.98,69.11,58.21,66.88,58.14z"/>
		<path d="M59.57,58.83c2.5-4.4,23.93-5.95,31.72,10.81l7.19-11.24C76.71,46.81,61.67,53.86,59.57,58.83z"/>
		<path d="M105.61,44.01c-6.16-1.2-12.41-1.39-18.7-1.13c-4.84,0.2-9.53,0.96-14,2.64c-12.56,4.89-14.43,13.63-14.36,15.43
			c0.23-0.7,0.23-0.84,0.29-0.95c0.73-2.53,9.45-20.17,42.31-5.8c0,0,3.86-6.03,6.25-9.78c0,0-0.47-0.1-0.52-0.12
			C106.46,44.19,106.04,44.08,105.61,44.01z"/>
		<path d="M68.17,59.99c0.38,1.43,5.93,6.85,0.27,15.98c-2.89,3.97-6.9,6.99-11.35,9.59c-2.38,1.39-5.53,2.92-8.09,4.22
			c1.85,3.04,4,6.11,5.93,9.29c0.38-0.27,6.67-5.92,11.28-12.45C77.68,70.19,69.77,61.65,68.17,59.99z"/>
		<path d="M47.95,61.99c3.24,2.95,7.01,5.11,11.85,5.58c2.03,0.2,3.89,0.02,5.58-0.97c-0.13,0.03-0.25,0.05-0.37,0.09
			c-3.56,1.13-6.83,0.42-9.83-1.52c-2.51-1.62-4.18-3.77-5.33-6.24c-2.92-6.5-3.44-13.86-3.44-13.86s-11.67-7.94-9.91-6.74
			C36.51,38.33,37.3,52.11,47.95,61.99z"/>
		<path d="M68.53,61.85c1.66,5.95-1.56,14.09-19.6,16.55c-1.86,0.24-4.71,0.63-6.7,0.8c1.48,2.46,3.49,5.39,5.12,8.01
			c0,0,6.5-1.91,13.71-6.66C73.11,72.2,69.58,64.03,68.53,61.85z"/>
		<path d="M51.38,76.11c16.93-2.74,17.42-10.67,16.81-12.43c0.09,1.32-0.16,2.49-1.01,3.54c-2.42,2.98-6.26,3.93-10.92,4.17
			c-4.73,0.25-9.23-0.75-13.43-2.55c-2.77-1.18-9.16-4.9-12.36-8.05c2.12,3.52,7.8,11.93,9.9,15.49
			C40.38,76.28,43.82,77.2,51.38,76.11z"/>
		<path d="M65.38,57.21c3.93,0.21,16.4,2.78,18.53,23.96l4.12-6.42C83.63,57.03,69.16,56.56,65.38,57.21z"/>
		<path d="M56.5,64.55c1.57,1.08,3.32,1.76,4.95,1.88c-1.13-0.67-2.73-1.33-3.87-2.35c-4.11-3.28-2.56-13.06-2.56-13.06l-5.61-3.84
			C49.41,47.17,49.84,59.99,56.5,64.55z"/>
	</g>
</g>
</svg>
