<?xml version="1.0" encoding="utf-8"?>
<svg version="1.1" xmlns="http://www.w3.org/2000/svg" xmlns:xlink="http://www.w3.org/1999/xlink" x="0px" y="0px"
	 viewBox="0 0 127 127" style="enable-background:new 0 0 127 127;" xml:space="preserve">
<style type="text/css">
	.st0{fill:#BCBCBC;}
</style>
<g transform="translate(20, 20) scale(0.8, 0.8)">
	<path class="st0" d="M82.43,69.44c3.13-1.54,3.43-4.31,3.41-4.33c0,0-1.28,3.23-4.66,4.01c-5.24,1.65-10.23,0.63-14.96-1.51
		c-6.39-2.88-12.32-8.55-14.88-11.52C39.08,41.87,38.26,26.16,38.26,26.16L0.4,0.21C0.4,0.21,46.37,85.34,82.43,69.44z"/>
	<path class="st0" d="M74.72,64.1c0,0-5.81-10.21,8.8-21.75c8.21-6.02,18-8.68,28.59-9.48c8.87-0.67,17.71-0.35,26.5,0.79
		c0.91,0.12,1.47,0.19,1.47,0.19c1.93-3.09,19.31-30.09,20.93-32.79c0,0-38.6,14.18-49.15,17.78C61.96,35.82,73.09,63.18,74.72,64.1
		z"/>
	<path class="st0" d="M84.82,56.78c4.92,2.79,16.11,13.53,7.33,33.31c-5.84,13.84-17.97,26.44-17.97,26.44
		c2.36,3.81,3.75,5.52,6.07,9.35c0.14,0.23,0.32,0.43,0.59,0.79c1.8-2.8,3.5-5.46,5.19-8.12c5.55-8.73,15.62-24.58,15.62-24.58
		C105.1,62.97,87.66,56.86,84.82,56.78z"/>
	<path class="st0" d="M75.46,57.66c3.2-5.63,30.61-7.61,40.56,13.83l9.19-14.37C97.38,42.29,78.15,51.3,75.46,57.66z"/>
	<path class="st0" d="M134.34,38.7c-7.88-1.53-15.87-1.78-23.91-1.44c-6.19,0.26-12.19,1.23-17.9,3.37
		c-16.06,6.26-18.46,17.43-18.36,19.73c0.29-0.89,0.29-1.08,0.37-1.22c0.93-3.23,12.09-25.79,54.11-7.42c0,0,4.94-7.71,7.99-12.51
		c0,0-0.6-0.13-0.67-0.15C135.43,38.93,134.89,38.8,134.34,38.7z"/>
	<path class="st0" d="M86.47,59.14c0.49,1.83,7.58,8.76,0.35,20.44c-3.69,5.08-8.83,8.94-14.51,12.27
		c-3.04,1.78-7.07,3.73-10.35,5.4c2.37,3.89,5.12,7.82,7.59,11.88c0.48-0.35,8.53-7.57,14.42-15.92
		C98.63,72.19,88.51,61.27,86.47,59.14z"/>
	<path class="st0" d="M60.61,61.7c4.15,3.77,8.96,6.54,15.15,7.13c2.59,0.25,4.97,0.02,7.14-1.24c-0.16,0.04-0.32,0.07-0.47,0.12
		c-4.55,1.45-8.73,0.54-12.57-1.94c-3.21-2.07-5.34-4.82-6.82-7.98c-3.73-8.31-4.4-17.73-4.4-17.73S43.71,29.9,45.97,31.44
		C45.97,31.44,46.99,49.07,60.61,61.7z"/>
	<path class="st0" d="M86.93,61.52c2.12,7.61-1.99,18.02-25.06,21.17c-2.38,0.31-6.02,0.8-8.57,1.02c1.89,3.14,4.46,6.89,6.55,10.25
		c0,0,8.31-2.44,17.53-8.52C92.78,74.76,88.27,64.31,86.93,61.52z"/>
	<path class="st0" d="M64.99,79.76c21.65-3.5,22.28-13.65,21.5-15.9c0.11,1.69-0.2,3.18-1.29,4.53c-3.09,3.81-8.01,5.02-13.96,5.33
		c-6.05,0.32-11.8-0.96-17.18-3.26c-3.54-1.51-11.72-6.27-15.81-10.29c2.71,4.5,9.98,15.26,12.66,19.81
		C50.92,79.97,55.32,81.15,64.99,79.76z"/>
	<path class="st0" d="M82.9,55.59c5.02,0.27,20.98,3.55,23.7,30.64l5.27-8.21C106.23,55.36,87.73,54.75,82.9,55.59z"/>
	<path class="st0" d="M71.54,64.98c2.01,1.38,4.25,2.25,6.33,2.4c-1.45-0.86-3.49-1.7-4.95-3.01c-5.26-4.19-3.28-16.7-3.28-16.7
		l-7.17-4.91C62.47,42.75,63.02,59.14,71.54,64.98z"/>
</g>
</svg>

