<?xml version="1.0" encoding="utf-8"?>
<!-- Generator: Adobe Illustrator 27.5.0, SVG Export Plug-In . SVG Version: 6.00 Build 0)  -->
<svg version="1.1" id="Calque_1" xmlns="http://www.w3.org/2000/svg" xmlns:xlink="http://www.w3.org/1999/xlink" x="0px" y="0px"
	 viewBox="0 0 595.28 126.99" style="enable-background:new 0 0 595.28 126.99;" xml:space="preserve">
<style type="text/css">
	.st0{fill:#BCBCBC;}
</style>
<g>
	<path class="st0" d="M247.66,42.91c0-0.37-0.27-0.55-0.82-0.55h-6.9c-1.61,0-2.73,0.72-3.35,2.15l-11.24,28.57l-11.04-28.57
		c-0.31-0.79-0.81-1.35-1.5-1.67c-0.69-0.32-1.39-0.48-2.11-0.48h-6.26c-0.76,0-1.14,0.22-1.14,0.67c0,0.1,0.03,0.23,0.09,0.39
		c0.06,0.17,0.12,0.32,0.17,0.45l15.58,38.82c0.39,0.97,1.14,1.46,2.24,1.46h6.17c1.24,0,2.21-0.32,2.91-0.96
		c0.7-0.64,1.32-1.62,1.86-2.94l15-36.41C247.55,43.36,247.66,43.05,247.66,42.91z"/>
	<path class="st0" d="M272.06,42.82c-0.14-0.29-0.39-0.44-0.76-0.44h-6.03c-0.95,0-1.73,0.2-2.35,0.6c-0.61,0.4-1.13,1.1-1.56,2.11
		l-16.66,38.39c-0.06,0.14-0.09,0.25-0.09,0.35c0,0.21,0.16,0.32,0.47,0.32h6.9c1.09,0,1.97-0.25,2.65-0.76
		c0.68-0.5,1.25-1.31,1.72-2.42l1.78-4.14h18l2.83,6.55c0.23,0.5,0.6,0.76,1.11,0.76h6.35c0.93,0,1.6-0.15,2.01-0.44
		c0.41-0.29,0.61-0.65,0.61-1.08c0-0.47-0.13-0.98-0.38-1.54L272.06,42.82z M261.43,69.18l5.68-13.13l5.71,13.13H261.43z"/>
	<path class="st0" d="M331.77,42.39h-6.15c-0.37,0-0.72,0.07-1.05,0.2c-0.33,0.14-0.62,0.33-0.86,0.57
		c-0.24,0.24-0.43,0.53-0.57,0.86c-0.14,0.33-0.2,0.68-0.2,1.05v23.48l-18.29-25.48c-0.33-0.45-0.76-0.67-1.28-0.67h-7.28
		c-0.37,0-0.72,0.07-1.05,0.2c-0.33,0.14-0.62,0.33-0.86,0.57c-0.24,0.24-0.43,0.53-0.57,0.86c-0.14,0.33-0.2,0.68-0.2,1.05v38.21
		c0,0.25,0.08,0.46,0.23,0.63c0.15,0.17,0.37,0.25,0.64,0.25h6.15c0.37,0,0.72-0.07,1.05-0.2c0.33-0.14,0.62-0.32,0.86-0.57
		c0.24-0.24,0.43-0.53,0.57-0.86c0.14-0.33,0.2-0.68,0.2-1.05V56.72l19.13,26.8c0.31,0.43,0.7,0.64,1.17,0.64h6.55
		c0.37,0,0.72-0.07,1.05-0.2c0.33-0.14,0.62-0.32,0.86-0.57c0.24-0.24,0.43-0.53,0.57-0.86c0.14-0.33,0.2-0.68,0.2-1.05V43.26
		c0-0.27-0.09-0.48-0.26-0.64C332.21,42.46,332,42.39,331.77,42.39z"/>
	<path class="st0" d="M375.83,47.6v-4.66c0-0.37-0.19-0.55-0.58-0.55h-33.67c-2.08,0-3.12,1.03-3.12,3.09v4.63
		c0,0.37,0.18,0.55,0.55,0.55h13.11v32.91c0,0.39,0.18,0.58,0.55,0.58h6.44c2.08,0,3.12-1,3.12-3V50.66h10.46
		C374.79,50.66,375.83,49.64,375.83,47.6z"/>
	<path class="st0" d="M400.42,42.82c-0.14-0.29-0.39-0.44-0.76-0.44h-6.03c-0.95,0-1.73,0.2-2.34,0.6c-0.61,0.4-1.13,1.1-1.56,2.11
		l-16.66,38.39c-0.06,0.14-0.09,0.25-0.09,0.35c0,0.21,0.15,0.32,0.47,0.32h6.9c1.09,0,1.97-0.25,2.65-0.76
		c0.68-0.5,1.25-1.31,1.72-2.42l1.78-4.14h18l2.83,6.55c0.23,0.5,0.6,0.76,1.11,0.76h6.35c0.93,0,1.6-0.15,2.01-0.44
		c0.41-0.29,0.61-0.65,0.61-1.08c0-0.47-0.13-0.98-0.38-1.54L400.42,42.82z M389.79,69.18l5.68-13.13l5.71,13.13H389.79z"/>
	<path class="st0" d="M460.12,42.39h-6.15c-0.37,0-0.72,0.07-1.05,0.2c-0.33,0.14-0.62,0.33-0.86,0.57
		c-0.24,0.24-0.43,0.53-0.57,0.86c-0.14,0.33-0.2,0.68-0.2,1.05v23.48l-18.29-25.48c-0.33-0.45-0.76-0.67-1.28-0.67h-7.28
		c-0.37,0-0.72,0.07-1.05,0.2c-0.33,0.14-0.62,0.33-0.86,0.57c-0.24,0.24-0.43,0.53-0.57,0.86c-0.14,0.33-0.2,0.68-0.2,1.05v38.21
		c0,0.25,0.08,0.46,0.23,0.63c0.15,0.17,0.37,0.25,0.64,0.25h6.15c0.37,0,0.72-0.07,1.05-0.2c0.33-0.14,0.62-0.32,0.86-0.57
		c0.24-0.24,0.43-0.53,0.57-0.86c0.14-0.33,0.2-0.68,0.2-1.05V56.72l19.13,26.8c0.31,0.43,0.7,0.64,1.17,0.64h6.55
		c0.37,0,0.72-0.07,1.05-0.2c0.33-0.14,0.62-0.32,0.86-0.57c0.24-0.24,0.43-0.53,0.57-0.86c0.14-0.33,0.2-0.68,0.2-1.05V43.26
		c0-0.27-0.09-0.48-0.26-0.64C460.56,42.46,460.36,42.39,460.12,42.39z"/>
	<path class="st0" d="M504.52,50.16c-0.88-1.53-1.95-2.83-3.19-3.89c-1.24-1.06-2.61-1.91-4.11-2.55c-1.5-0.64-3.09-1.1-4.79-1.38
		c-1.7-0.28-3.45-0.42-5.26-0.42c-1.77,0-3.49,0.15-5.18,0.45c-1.69,0.3-3.29,0.79-4.79,1.46c-1.51,0.67-2.89,1.54-4.17,2.62
		c-1.27,1.08-2.37,2.39-3.29,3.93c-0.92,1.54-1.64,3.33-2.15,5.37c-0.51,2.04-0.77,4.37-0.77,6.99c0,3.05,0.23,5.71,0.7,7.98
		c0.47,2.27,1.14,4.21,2.01,5.83c0.87,1.61,1.92,2.93,3.15,3.96c1.22,1.03,2.59,1.84,4.09,2.45c1.5,0.6,3.14,1.01,4.91,1.24
		c1.77,0.22,3.61,0.34,5.53,0.34c1.94,0,3.79-0.12,5.53-0.36c1.75-0.24,3.36-0.67,4.85-1.3c1.49-0.62,2.83-1.46,4.03-2.5
		c1.2-1.05,2.23-2.38,3.07-3.99c0.84-1.61,1.5-3.54,1.95-5.78c0.46-2.24,0.68-4.86,0.68-7.85c0-2.7-0.25-5.09-0.74-7.16
		C506.1,53.5,505.41,51.7,504.52,50.16z M496.66,69.21c-0.44,1.69-1.08,3.06-1.94,4.12c-0.85,1.06-1.92,1.83-3.2,2.3
		c-1.28,0.48-2.76,0.71-4.43,0.71c-1.81,0-3.35-0.22-4.63-0.67c-1.28-0.45-2.33-1.18-3.15-2.21c-0.82-1.03-1.41-2.4-1.79-4.11
		c-0.38-1.71-0.57-3.82-0.57-6.35c0-2.72,0.24-4.92,0.71-6.61c0.48-1.69,1.16-3,2.05-3.93c0.89-0.93,1.98-1.56,3.28-1.88
		c1.29-0.32,2.75-0.48,4.38-0.48c1.75,0,3.25,0.21,4.51,0.64c1.26,0.43,2.29,1.15,3.09,2.16c0.8,1.01,1.38,2.33,1.76,3.97
		c0.38,1.64,0.57,3.68,0.57,6.13C497.31,65.45,497.1,67.52,496.66,69.21z"/>
	<path class="st0" d="M553.18,42.91c0-0.37-0.27-0.55-0.82-0.55h-6.9c-1.61,0-2.73,0.72-3.35,2.15l-11.24,28.57l-11.04-28.57
		c-0.31-0.79-0.81-1.35-1.5-1.67c-0.69-0.32-1.39-0.48-2.11-0.48h-6.26c-0.76,0-1.14,0.22-1.14,0.67c0,0.1,0.03,0.23,0.09,0.39
		c0.06,0.17,0.12,0.32,0.17,0.45l15.58,38.82c0.39,0.97,1.14,1.46,2.24,1.46h6.17c1.24,0,2.21-0.32,2.91-0.96
		c0.7-0.64,1.32-1.62,1.86-2.94l15-36.41C553.07,43.36,553.18,43.05,553.18,42.91z"/>
	<path class="st0" d="M594.18,81.09l-16.6-38.27c-0.14-0.29-0.39-0.44-0.76-0.44h-6.03c-0.95,0-1.73,0.2-2.35,0.6
		c-0.61,0.4-1.13,1.1-1.56,2.11l-16.66,38.39c-0.06,0.14-0.09,0.25-0.09,0.35c0,0.21,0.16,0.32,0.47,0.32h6.9
		c1.09,0,1.97-0.25,2.65-0.76c0.68-0.5,1.25-1.31,1.72-2.42l1.78-4.14h18l2.83,6.55c0.23,0.5,0.6,0.76,1.11,0.76h6.35
		c0.93,0,1.6-0.15,2.01-0.44c0.41-0.29,0.61-0.65,0.61-1.08C594.56,82.17,594.44,81.66,594.18,81.09z M566.95,69.18l5.68-13.13
		l5.71,13.13H566.95z"/>
	<path class="st0" d="M82.43,69.44c3.13-1.54,3.43-4.31,3.41-4.33c0,0-1.28,3.23-4.66,4.01c-5.24,1.65-10.23,0.63-14.96-1.51
		c-6.39-2.88-12.32-8.55-14.88-11.52C39.08,41.87,38.26,26.16,38.26,26.16L0.4,0.21C0.4,0.21,46.37,85.34,82.43,69.44z"/>
	<path class="st0" d="M74.72,64.1c0,0-5.81-10.21,8.8-21.75c8.21-6.02,18-8.68,28.59-9.48c8.87-0.67,17.71-0.35,26.5,0.79
		c0.91,0.12,1.47,0.19,1.47,0.19c1.93-3.09,19.31-30.09,20.93-32.79c0,0-38.6,14.18-49.15,17.78C61.96,35.82,73.09,63.18,74.72,64.1
		z"/>
	<path class="st0" d="M84.82,56.78c4.92,2.79,16.11,13.53,7.33,33.31c-5.84,13.84-17.97,26.44-17.97,26.44
		c2.36,3.81,3.75,5.52,6.07,9.35c0.14,0.23,0.32,0.43,0.59,0.79c1.8-2.8,3.5-5.46,5.19-8.12c5.55-8.73,15.62-24.58,15.62-24.58
		C105.1,62.97,87.66,56.86,84.82,56.78z"/>
	<path class="st0" d="M75.46,57.66c3.2-5.63,30.61-7.61,40.56,13.83l9.19-14.37C97.38,42.29,78.15,51.3,75.46,57.66z"/>
	<path class="st0" d="M134.34,38.7c-7.88-1.53-15.87-1.78-23.91-1.44c-6.19,0.26-12.19,1.23-17.9,3.37
		c-16.06,6.26-18.46,17.43-18.36,19.73c0.29-0.89,0.29-1.08,0.37-1.22c0.93-3.23,12.09-25.79,54.11-7.42c0,0,4.94-7.71,7.99-12.51
		c0,0-0.6-0.13-0.67-0.15C135.43,38.93,134.89,38.8,134.34,38.7z"/>
	<path class="st0" d="M86.47,59.14c0.49,1.83,7.58,8.76,0.35,20.44c-3.69,5.08-8.83,8.94-14.51,12.27
		c-3.04,1.78-7.07,3.73-10.35,5.4c2.37,3.89,5.12,7.82,7.59,11.88c0.48-0.35,8.53-7.57,14.42-15.92
		C98.63,72.19,88.51,61.27,86.47,59.14z"/>
	<path class="st0" d="M60.61,61.7c4.15,3.77,8.96,6.54,15.15,7.13c2.59,0.25,4.97,0.02,7.14-1.24c-0.16,0.04-0.32,0.07-0.47,0.12
		c-4.55,1.45-8.73,0.54-12.57-1.94c-3.21-2.07-5.34-4.82-6.82-7.98c-3.73-8.31-4.4-17.73-4.4-17.73S43.71,29.9,45.97,31.44
		C45.97,31.44,46.99,49.07,60.61,61.7z"/>
	<path class="st0" d="M86.93,61.52c2.12,7.61-1.99,18.02-25.06,21.17c-2.38,0.31-6.02,0.8-8.57,1.02c1.89,3.14,4.46,6.89,6.55,10.25
		c0,0,8.31-2.44,17.53-8.52C92.78,74.76,88.27,64.31,86.93,61.52z"/>
	<path class="st0" d="M64.99,79.76c21.65-3.5,22.28-13.65,21.5-15.9c0.11,1.69-0.2,3.18-1.29,4.53c-3.09,3.81-8.01,5.02-13.96,5.33
		c-6.05,0.32-11.8-0.96-17.18-3.26c-3.54-1.51-11.72-6.27-15.81-10.29c2.71,4.5,9.98,15.26,12.66,19.81
		C50.92,79.97,55.32,81.15,64.99,79.76z"/>
	<path class="st0" d="M82.9,55.59c5.02,0.27,20.98,3.55,23.7,30.64l5.27-8.21C106.23,55.36,87.73,54.75,82.9,55.59z"/>
	<path class="st0" d="M71.54,64.98c2.01,1.38,4.25,2.25,6.33,2.4c-1.45-0.86-3.49-1.7-4.95-3.01c-5.26-4.19-3.28-16.7-3.28-16.7
		l-7.17-4.91C62.47,42.75,63.02,59.14,71.54,64.98z"/>
</g>
</svg>
