<?xml version="1.0" encoding="UTF-8"?>
<svg id="Calque_2" data-name="Calque 2" xmlns="http://www.w3.org/2000/svg" viewBox="0 0 561.08 54.09">
  <defs>
    <style>
      .cls-1 {
        fill: #bcbcbc;
      }
    </style>
  </defs>
  <path class="cls-1" d="m47.78,49.91l-2.52-6.85s-4.09,4.57-10.23,4.57c-5.43,0-9.29-4.72-9.29-12.28,0-9.68,4.88-13.15,9.68-13.15,6.93,0,9.13,4.49,11.02,10.23l2.52,7.87c2.52,7.64,7.24,13.78,20.86,13.78,9.76,0,16.38-2.99,16.38-10.86,0-6.38-3.62-9.68-10.39-11.26l-5.04-1.1c-3.46-.79-4.49-2.2-4.49-4.57,0-2.68,2.13-4.25,5.59-4.25,3.78,0,5.83,1.42,6.14,4.8l7.87-.94c-.63-7.09-5.51-10-13.54-10-7.08,0-14.01,2.68-14.01,11.26,0,5.35,2.6,8.74,9.13,10.31l5.35,1.26c4.01.94,5.35,2.6,5.35,4.88,0,2.91-2.83,4.09-8.19,4.09-7.95,0-11.26-4.17-13.15-9.92l-2.6-7.87c-3.31-10.23-8.58-14.01-19.05-14.01-11.57,0-17.71,7.32-17.71,19.76s6.14,18.42,17.16,18.42c8.89,0,13.15-4.17,13.15-4.17h0Zm-33.69-3.7c-.79.24-1.57.39-2.6.39-1.89,0-3.23-.87-3.23-3.15V.55H0v44.88c0,5.9,4.09,8.35,8.9,8.35,1.57,0,3.07-.24,4.96-.71l.24-6.85h0Zm99.58-1.26c-2.05,1.42-3.78,2.13-6.14,2.13-2.99,0-4.64-1.57-4.64-5.43v-18.42h10.86v-6.46h-10.79v-8.74l-8.34,1.02v7.72h-5.27v6.46h5.27v20.15c0,7.24,4.17,10.71,10.94,10.71,3.7,0,7.01-.71,9.61-2.2l-1.5-6.93Zm7.18,2.83c0,3.23,2.52,5.83,5.75,5.83,3.39,0,5.9-2.6,5.9-5.83s-2.52-5.82-5.9-5.82-5.75,2.52-5.75,5.82Zm20.21-24.56v29.92h8.27v-29.92h9.29v-6.46h-9.29v-3.31c0-4.96,2.13-6.53,5.59-6.53,2.44,0,4.09.55,5.98,1.57l1.34-6.93c-2.2-1.02-4.8-1.57-7.95-1.57-6.93,0-13.23,3.31-13.23,13.15v3.62h-5.27v6.46h5.27Zm50.5.71c-.94-5.9-4.8-8.03-9.84-8.03s-9.37,2.28-11.26,7.87l-1.02-7.01h-6.69v36.37h8.27v-20.55c0-7.01,3.62-9.68,7.48-9.68s5.67,2.68,5.67,7.01v23.23h8.19v-20.63c0-6.93,3.7-9.61,7.56-9.61s5.59,2.68,5.59,7.01v23.22h8.27v-26.14c0-7.79-4.57-11.1-10.63-11.1-5.12,0-9.68,2.28-11.57,8.03h0Z"/>
  <g>
    <path class="cls-1" d="m232.69,49.37V11.6h11.1c2.11,0,3.98.45,5.6,1.34,1.62.9,2.89,2.15,3.81,3.78.92,1.62,1.38,3.52,1.38,5.68s-.46,4-1.38,5.6-2.19,2.86-3.81,3.75c-1.62.9-3.49,1.34-5.6,1.34h-10.49v-1.17h10.49c1.88,0,3.54-.4,4.98-1.19,1.45-.79,2.58-1.9,3.41-3.33.83-1.43,1.24-3.1,1.24-5.01s-.41-3.63-1.24-5.07c-.83-1.44-1.96-2.56-3.41-3.36-1.44-.8-3.1-1.2-4.98-1.2h-9.94v36.6h-1.17Zm22.36,0l-9.28-17.19h1.32l9.28,17.19h-1.32Z"/>
    <path class="cls-1" d="m273.6,49.98c-2.47,0-4.63-.65-6.48-1.94s-3.29-3.05-4.31-5.27c-1.02-2.22-1.53-4.72-1.53-7.49s.52-5.26,1.55-7.48c1.03-2.21,2.43-3.96,4.21-5.25,1.77-1.28,3.78-1.93,6.01-1.93,1.66,0,3.19.35,4.59,1.05s2.63,1.68,3.68,2.94c1.05,1.26,1.86,2.73,2.43,4.42.57,1.69.86,3.53.86,5.53v.66h-22.71v-1.17h22.08l-.51.51c0-2.37-.45-4.52-1.36-6.45-.9-1.93-2.14-3.47-3.7-4.61-1.56-1.14-3.35-1.71-5.36-1.71s-3.72.58-5.32,1.74-2.89,2.73-3.84,4.71c-.96,1.99-1.43,4.23-1.43,6.73v.15c0,2.48.44,4.76,1.31,6.83.87,2.07,2.14,3.73,3.8,4.98,1.66,1.25,3.68,1.88,6.05,1.88,1.76,0,3.23-.31,4.41-.93,1.18-.62,2.14-1.33,2.86-2.14s1.26-1.5,1.6-2.05l.96.66c-.42.71-1.05,1.5-1.89,2.38-.84.88-1.91,1.64-3.22,2.28-1.31.64-2.89.96-4.73.96Z"/>
    <path class="cls-1" d="m293.88,11.6v37.77h-1.17V11.6h1.17Z"/>
    <path class="cls-1" d="m310.36,49.98c-1.56,0-2.99-.32-4.31-.96-1.32-.64-2.38-1.58-3.17-2.81-.79-1.23-1.19-2.73-1.19-4.49,0-.96.15-1.87.46-2.71.3-.84.85-1.61,1.62-2.29.78-.68,1.86-1.28,3.26-1.77,1.39-.5,3.18-.87,5.36-1.13,1.32-.15,2.56-.33,3.71-.52,1.16-.19,2.09-.49,2.81-.89.72-.4,1.08-.96,1.08-1.69v-1.67c0-1.47-.33-2.75-.99-3.83s-1.59-1.92-2.79-2.52c-1.2-.6-2.61-.9-4.23-.9-1.33,0-2.56.2-3.68.6-1.12.4-2.07.97-2.88,1.71-.8.74-1.41,1.65-1.81,2.71l-1.12-.46c.46-1.18,1.14-2.2,2.07-3.05s2.02-1.51,3.3-1.98c1.28-.46,2.65-.7,4.12-.7s2.72.21,3.85.63c1.13.42,2.1,1.01,2.89,1.77.79.76,1.4,1.65,1.81,2.67s.62,2.13.62,3.33v20.33h-1.17v-5.73h-.15c-.57,1.27-1.33,2.38-2.28,3.32s-2.03,1.69-3.24,2.22-2.54.8-3.95.8Zm0-1.17c1.79,0,3.41-.49,4.87-1.46s2.61-2.33,3.47-4.07c.86-1.74,1.29-3.75,1.29-6.03v-4.26c-.35.25-.77.48-1.25.68-.48.2-1.02.38-1.62.53-.6.15-1.26.28-1.98.39-.72.11-1.48.21-2.29.32-2.53.29-4.53.74-5.98,1.34-1.45.61-2.48,1.37-3.09,2.27-.61.9-.91,1.96-.91,3.18,0,1.42.33,2.66.99,3.73.66,1.07,1.56,1.89,2.7,2.48,1.14.59,2.41.89,3.82.89Z"/>
    <path class="cls-1" d="m337.64,21.03v1.17h-11.2v-1.17h11.2Zm-7.05-6.74h1.17v29.68c0,1.69.43,2.94,1.28,3.74s2.01,1.02,3.46.65c.14-.03.28-.07.43-.11s.29-.08.43-.11l.28,1.14c-.15.03-.31.07-.47.11-.16.04-.32.08-.47.11-1.89.46-3.38.14-4.47-.95s-1.63-2.61-1.63-4.58V14.29Z"/>
    <path class="cls-1" d="m353.76,49.98c-2.47,0-4.63-.65-6.48-1.94-1.85-1.29-3.29-3.05-4.31-5.27-1.02-2.22-1.53-4.72-1.53-7.49s.52-5.26,1.55-7.48c1.03-2.21,2.43-3.96,4.21-5.25,1.77-1.28,3.78-1.93,6.01-1.93,1.66,0,3.19.35,4.59,1.05,1.4.7,2.63,1.68,3.67,2.94s1.86,2.73,2.43,4.42c.57,1.69.86,3.53.86,5.53v.66h-22.71v-1.17h22.08l-.51.51c0-2.37-.45-4.52-1.36-6.45s-2.14-3.47-3.7-4.61c-1.56-1.14-3.35-1.71-5.36-1.71s-3.72.58-5.32,1.74-2.89,2.73-3.84,4.71c-.96,1.99-1.43,4.23-1.43,6.73v.15c0,2.48.44,4.76,1.31,6.83.87,2.07,2.14,3.73,3.8,4.98,1.66,1.25,3.68,1.88,6.05,1.88,1.76,0,3.23-.31,4.41-.93,1.18-.62,2.14-1.33,2.86-2.14s1.26-1.5,1.6-2.05l.96.66c-.42.71-1.05,1.5-1.89,2.38-.84.88-1.91,1.64-3.22,2.28-1.31.64-2.89.96-4.73.96Z"/>
    <path class="cls-1" d="m382.05,49.98c-2.21,0-4.14-.64-5.78-1.93-1.64-1.28-2.9-3.04-3.79-5.26-.89-2.22-1.33-4.73-1.33-7.52s.45-5.26,1.34-7.48c.9-2.21,2.16-3.96,3.8-5.25,1.64-1.28,3.56-1.93,5.75-1.93,1.5,0,2.89.31,4.17.92,1.28.62,2.39,1.5,3.33,2.65.95,1.15,1.66,2.51,2.13,4.08h.15V11.6h1.17v37.77h-1.17v-7.1h-.15c-.49,1.57-1.2,2.94-2.14,4.09-.94,1.16-2.04,2.05-3.31,2.67s-2.66.94-4.18.94Zm0-1.17c2.01,0,3.75-.6,5.21-1.79s2.59-2.81,3.38-4.85c.79-2.04,1.19-4.34,1.19-6.89s-.4-4.85-1.2-6.88c-.8-2.04-1.93-3.65-3.4-4.83-1.46-1.18-3.19-1.77-5.18-1.77s-3.7.59-5.16,1.77c-1.46,1.18-2.59,2.79-3.38,4.83-.79,2.04-1.19,4.33-1.19,6.88s.4,4.85,1.19,6.89c.79,2.04,1.92,3.66,3.37,4.85,1.45,1.19,3.18,1.79,5.17,1.79Z"/>
    <path class="cls-1" d="m415.86,12.77v-1.17h25.5v1.17h-12.17v36.6h-1.17V12.77h-12.17Z"/>
    <path class="cls-1" d="m446.68,49.37v-28.34h1.17v4.51h.15c.68-1.47,1.77-2.65,3.28-3.54,1.51-.89,3.24-1.33,5.18-1.33h.61v1.17h-.61c-1.66,0-3.13.37-4.44,1.1-1.3.73-2.32,1.74-3.07,3.02-.74,1.28-1.12,2.74-1.12,4.4v19.01h-1.17Z"/>
    <path class="cls-1" d="m470.01,49.98c-1.56,0-2.99-.32-4.31-.96-1.32-.64-2.38-1.58-3.17-2.81-.79-1.23-1.19-2.73-1.19-4.49,0-.96.15-1.87.46-2.71.3-.84.85-1.61,1.62-2.29.78-.68,1.86-1.28,3.26-1.77,1.39-.5,3.18-.87,5.36-1.13,1.32-.15,2.56-.33,3.71-.52,1.16-.19,2.09-.49,2.81-.89.72-.4,1.08-.96,1.08-1.69v-1.67c0-1.47-.33-2.75-.99-3.83s-1.59-1.92-2.79-2.52c-1.2-.6-2.61-.9-4.23-.9-1.33,0-2.56.2-3.68.6-1.12.4-2.07.97-2.88,1.71-.8.74-1.41,1.65-1.81,2.71l-1.12-.46c.46-1.18,1.14-2.2,2.07-3.05s2.02-1.51,3.3-1.98c1.28-.46,2.65-.7,4.12-.7s2.72.21,3.85.63c1.13.42,2.1,1.01,2.89,1.77.79.76,1.4,1.65,1.81,2.67s.62,2.13.62,3.33v20.33h-1.17v-5.73h-.15c-.57,1.27-1.33,2.38-2.28,3.32s-2.03,1.69-3.24,2.22-2.54.8-3.95.8Zm0-1.17c1.79,0,3.41-.49,4.87-1.46s2.61-2.33,3.47-4.07c.86-1.74,1.29-3.75,1.29-6.03v-4.26c-.35.25-.77.48-1.25.68-.48.2-1.02.38-1.62.53-.6.15-1.26.28-1.98.39-.72.11-1.48.21-2.29.32-2.53.29-4.53.74-5.98,1.34-1.45.61-2.48,1.37-3.09,2.27-.61.9-.91,1.96-.91,3.18,0,1.42.33,2.66.99,3.73.66,1.07,1.56,1.89,2.7,2.48,1.14.59,2.41.89,3.82.89Z"/>
    <path class="cls-1" d="m500.88,49.77c-2.23,0-4.23-.63-6.01-1.9s-3.18-3-4.21-5.2c-1.03-2.2-1.55-4.69-1.55-7.48s.52-5.28,1.55-7.48c1.03-2.2,2.43-3.93,4.21-5.2s3.78-1.9,6.01-1.9c1.57,0,2.94.28,4.11.84,1.17.56,2.14,1.21,2.92,1.96.78.75,1.37,1.44,1.79,2.05.41.62.65.99.72,1.1l-1.01.58c-.07-.12-.29-.46-.66-1.03-.37-.57-.91-1.18-1.61-1.85-.7-.67-1.57-1.25-2.6-1.75-1.03-.5-2.25-.75-3.65-.75-1.99,0-3.79.58-5.39,1.74-1.6,1.16-2.87,2.74-3.8,4.75-.94,2.01-1.41,4.32-1.41,6.92s.47,4.91,1.41,6.93,2.21,3.6,3.8,4.75c1.6,1.15,3.39,1.72,5.39,1.72,1.4,0,2.63-.25,3.69-.75,1.06-.5,1.94-1.08,2.65-1.76.71-.68,1.25-1.3,1.63-1.86.38-.57.6-.9.67-1l1.01.56c-.07.12-.31.49-.74,1.1-.42.62-1.03,1.3-1.83,2.05-.79.75-1.78,1.41-2.97,1.98-1.18.57-2.56.85-4.13.85Z"/>
    <path class="cls-1" d="m518.6,49.37V11.6h1.17v37.77h-1.17Zm.86-11.41v-2.05h.46l15.06-14.88h1.67l-12.88,12.72-.15.15-4.16,4.06Zm16.15,11.41l-12.45-15.62.89-.74,13.05,16.35h-1.5Z"/>
    <path class="cls-1" d="m551.65,49.98c-1.67,0-3.15-.28-4.44-.84s-2.34-1.36-3.16-2.42c-.82-1.06-1.4-2.34-1.74-3.84l1.17-.28c.42,2.01,1.33,3.55,2.71,4.61,1.38,1.07,3.2,1.6,5.45,1.6,2.45,0,4.44-.61,5.97-1.83s2.29-2.81,2.29-4.77c0-1.47-.46-2.7-1.38-3.7-.92-1-2.29-1.72-4.09-2.18l-4.41-1.12c-2.18-.54-3.83-1.43-4.96-2.66-1.12-1.23-1.69-2.73-1.69-4.49,0-1.49.37-2.79,1.12-3.9.74-1.12,1.77-1.99,3.09-2.61s2.84-.94,4.56-.94c1.45,0,2.75.24,3.88.71,1.13.47,2.1,1.18,2.9,2.13s1.43,2.13,1.89,3.55l-1.17.3c-.58-1.84-1.48-3.22-2.73-4.14-1.24-.92-2.83-1.38-4.78-1.38-2.26,0-4.1.57-5.5,1.72-1.4,1.15-2.1,2.67-2.1,4.56,0,1.47.47,2.72,1.41,3.74s2.36,1.78,4.27,2.27l4.46,1.12c2.06.52,3.64,1.39,4.74,2.58,1.1,1.2,1.65,2.68,1.65,4.44,0,1.54-.4,2.89-1.2,4.06s-1.91,2.07-3.33,2.72-3.05.98-4.89.98Z"/>
  </g>
</svg>