<?xml version="1.0" encoding="UTF-8"?>
<svg id="Calque_2" data-name="Calque 2" xmlns="http://www.w3.org/2000/svg" viewBox="0 0 530.04 54.09">
  <defs>
    <style>
      .cls-1 {
        fill: #bcbcbc;
      }
    </style>
  </defs>
  <path class="cls-1" d="m47.78,49.91l-2.52-6.85s-4.09,4.57-10.23,4.57c-5.43,0-9.29-4.72-9.29-12.28,0-9.68,4.88-13.15,9.68-13.15,6.93,0,9.13,4.49,11.02,10.23l2.52,7.87c2.52,7.64,7.24,13.78,20.86,13.78,9.76,0,16.38-2.99,16.38-10.86,0-6.38-3.62-9.68-10.39-11.26l-5.04-1.1c-3.46-.79-4.49-2.2-4.49-4.57,0-2.68,2.13-4.25,5.59-4.25,3.78,0,5.83,1.42,6.14,4.8l7.87-.94c-.63-7.09-5.51-10-13.54-10-7.08,0-14.01,2.68-14.01,11.26,0,5.35,2.6,8.74,9.13,10.31l5.35,1.26c4.01.94,5.35,2.6,5.35,4.88,0,2.91-2.83,4.09-8.19,4.09-7.95,0-11.26-4.17-13.15-9.92l-2.6-7.87c-3.31-10.23-8.58-14.01-19.05-14.01-11.57,0-17.71,7.32-17.71,19.76s6.14,18.42,17.16,18.42c8.89,0,13.15-4.17,13.15-4.17h0Zm-33.69-3.7c-.79.24-1.57.39-2.6.39-1.89,0-3.23-.87-3.23-3.15V.55H0v44.88c0,5.9,4.09,8.35,8.9,8.35,1.57,0,3.07-.24,4.96-.71l.24-6.85h0Zm99.58-1.26c-2.05,1.42-3.78,2.13-6.14,2.13-2.99,0-4.64-1.57-4.64-5.43v-18.42h10.86v-6.46h-10.79v-8.74l-8.34,1.02v7.72h-5.27v6.46h5.27v20.15c0,7.24,4.17,10.71,10.94,10.71,3.7,0,7.01-.71,9.61-2.2l-1.5-6.93Zm7.18,2.83c0,3.23,2.52,5.83,5.75,5.83,3.39,0,5.9-2.6,5.9-5.83s-2.52-5.82-5.9-5.82-5.75,2.52-5.75,5.82Zm20.21-24.56v29.92h8.27v-29.92h9.29v-6.46h-9.29v-3.31c0-4.96,2.13-6.53,5.59-6.53,2.44,0,4.09.55,5.98,1.57l1.34-6.93c-2.2-1.02-4.8-1.57-7.95-1.57-6.93,0-13.23,3.31-13.23,13.15v3.62h-5.27v6.46h5.27Zm50.5.71c-.94-5.9-4.8-8.03-9.84-8.03s-9.37,2.28-11.26,7.87l-1.02-7.01h-6.69v36.37h8.27v-20.55c0-7.01,3.62-9.68,7.48-9.68s5.67,2.68,5.67,7.01v23.23h8.19v-20.63c0-6.93,3.7-9.61,7.56-9.61s5.59,2.68,5.59,7.01v23.22h8.27v-26.14c0-7.79-4.57-11.1-10.63-11.1-5.12,0-9.68,2.28-11.57,8.03h0Z"/>
  <g>
    <path class="cls-1" d="m242.34,50.4c-2.3,0-4.31-.4-6.02-1.2-1.72-.8-3.07-1.92-4.07-3.35-1-1.43-1.56-3.07-1.67-4.93h1.17c.12,1.64.62,3.08,1.52,4.32.9,1.24,2.12,2.21,3.66,2.9,1.55.69,3.35,1.04,5.41,1.04,2.18,0,4.08-.38,5.7-1.13,1.62-.75,2.89-1.8,3.79-3.16.9-1.35,1.36-2.92,1.36-4.69,0-1.35-.3-2.54-.89-3.56-.59-1.02-1.52-1.93-2.78-2.73-1.26-.79-2.91-1.5-4.96-2.13l-4.26-1.32c-2.97-.93-5.2-2.16-6.67-3.7s-2.21-3.4-2.21-5.58c0-1.86.49-3.52,1.46-4.99.97-1.47,2.3-2.63,3.99-3.47,1.69-.84,3.61-1.27,5.75-1.27s4.06.43,5.69,1.29,2.93,2.04,3.89,3.54,1.5,3.22,1.62,5.16h-1.17c-.19-2.57-1.17-4.68-2.97-6.34-1.79-1.66-4.15-2.48-7.07-2.48-1.91,0-3.62.37-5.15,1.1-1.52.74-2.72,1.75-3.59,3.04-.87,1.29-1.31,2.77-1.31,4.42,0,1.27.29,2.41.86,3.43.57,1.02,1.45,1.92,2.64,2.69,1.18.77,2.67,1.43,4.46,1.99l4.31,1.32c1.62.51,3.03,1.07,4.22,1.7s2.18,1.33,2.95,2.1c.78.78,1.36,1.64,1.74,2.6.38.96.57,2.01.57,3.18,0,1.96-.5,3.71-1.51,5.25-1.01,1.54-2.41,2.75-4.21,3.62-1.8.88-3.9,1.32-6.3,1.32Z"/>
    <path class="cls-1" d="m263.93,14.99c-.32,0-.6-.12-.84-.35-.24-.24-.35-.52-.35-.84,0-.34.12-.62.35-.85.24-.23.52-.34.84-.34.34,0,.62.11.85.34.23.23.34.51.34.85s-.11.6-.34.84c-.23.24-.51.35-.85.35Zm-.56,34.8v-28.34h1.17v28.34h-1.17Z"/>
    <path class="cls-1" d="m274.58,49.79v-28.34h1.17v6.69h-.41c.39-1.67,1.04-3.03,1.95-4.07.91-1.04,1.97-1.8,3.18-2.29,1.21-.49,2.44-.73,3.69-.73,2.09,0,3.88.66,5.36,1.98,1.48,1.32,2.4,3.16,2.78,5.53h-.46c.32-1.59.91-2.94,1.77-4.06.86-1.12,1.92-1.97,3.17-2.56,1.25-.59,2.62-.89,4.11-.89,1.77,0,3.3.39,4.59,1.18,1.28.79,2.28,1.91,2.98,3.36.7,1.45,1.05,3.19,1.05,5.2v19.01h-1.17v-19.01c0-2.74-.67-4.85-2.01-6.34-1.34-1.49-3.16-2.23-5.44-2.23-1.52,0-2.91.33-4.16,1-1.25.67-2.25,1.64-2.99,2.92-.74,1.28-1.12,2.83-1.12,4.65v19.01h-1.17v-19.01c0-2.74-.66-4.85-1.99-6.34-1.33-1.49-3.1-2.23-5.31-2.23-1.59,0-3.02.37-4.28,1.1-1.27.73-2.27,1.75-3.02,3.03-.74,1.28-1.12,2.76-1.12,4.44v19.01h-1.17Z"/>
    <path class="cls-1" d="m320.11,14.99c-.32,0-.6-.12-.84-.35-.24-.24-.35-.52-.35-.84,0-.34.12-.62.35-.85.24-.23.52-.34.84-.34s.62.11.85.34.34.51.34.85-.11.6-.34.84c-.23.24-.51.35-.85.35Zm-.56,34.8v-28.34h1.17v28.34h-1.17Z"/>
    <path class="cls-1" d="m331.92,12.02v37.77h-1.17V12.02h1.17Z"/>
    <path class="cls-1" d="m348.4,50.4c-1.56,0-2.99-.32-4.31-.96-1.32-.64-2.38-1.58-3.17-2.81s-1.19-2.73-1.19-4.49c0-.96.15-1.87.46-2.71.3-.84.85-1.61,1.62-2.29.78-.68,1.86-1.28,3.26-1.77,1.39-.5,3.18-.88,5.36-1.13,1.32-.15,2.56-.33,3.71-.52,1.16-.19,2.09-.49,2.81-.89.72-.4,1.08-.96,1.08-1.69v-1.67c0-1.47-.33-2.75-.99-3.83-.66-1.08-1.59-1.92-2.79-2.52s-2.61-.9-4.23-.9c-1.33,0-2.56.2-3.68.6s-2.07.97-2.88,1.71-1.41,1.65-1.81,2.71l-1.12-.46c.46-1.18,1.14-2.2,2.07-3.05.92-.85,2.02-1.51,3.3-1.98,1.28-.46,2.65-.7,4.12-.7s2.72.21,3.85.63c1.13.42,2.1,1.01,2.89,1.77.79.76,1.4,1.65,1.81,2.67.41,1.02.62,2.13.62,3.33v20.33h-1.17v-5.73h-.15c-.57,1.27-1.33,2.37-2.28,3.32-.95.95-2.03,1.69-3.24,2.22-1.22.53-2.54.8-3.95.8Zm0-1.17c1.79,0,3.41-.49,4.87-1.46s2.61-2.33,3.47-4.07c.86-1.74,1.29-3.75,1.29-6.03v-4.26c-.35.25-.77.48-1.25.68-.48.2-1.02.38-1.62.53s-1.26.28-1.98.39c-.72.11-1.48.22-2.29.32-2.53.29-4.53.74-5.98,1.34-1.45.61-2.48,1.37-3.09,2.27s-.91,1.96-.91,3.18c0,1.42.33,2.66.99,3.73.66,1.06,1.56,1.89,2.7,2.48s2.41.89,3.82.89Z"/>
    <path class="cls-1" d="m369.23,49.79v-28.34h1.17v4.51h.15c.68-1.47,1.77-2.65,3.28-3.54,1.51-.89,3.24-1.33,5.18-1.33h.61v1.17h-.61c-1.66,0-3.13.37-4.44,1.1-1.3.73-2.32,1.74-3.07,3.02-.74,1.28-1.12,2.74-1.12,4.4v19.01h-1.17Z"/>
    <path class="cls-1" d="m397.37,49.79l14.12-37.77h1.6l14.14,37.77h-1.24l-10.95-29.25c-.51-1.35-1.01-2.7-1.51-4.06-.5-1.35-.99-2.7-1.48-4.06h.46c-.49,1.35-.98,2.7-1.48,4.06-.5,1.35-1,2.7-1.51,4.06l-10.9,29.25h-1.24Zm5.55-12.57v-1.17h18.76v1.17h-18.76Z"/>
    <path class="cls-1" d="m433.92,49.79v-28.34h1.17v4.51h.15c.68-1.47,1.77-2.65,3.28-3.54,1.51-.89,3.24-1.33,5.18-1.33h.61v1.17h-.61c-1.66,0-3.13.37-4.44,1.1-1.3.73-2.32,1.74-3.07,3.02-.74,1.28-1.12,2.74-1.12,4.4v19.01h-1.17Z"/>
    <path class="cls-1" d="m458.05,21.45v1.17h-11.2v-1.17h11.2Zm-7.05-6.74h1.17v29.68c0,1.69.43,2.94,1.28,3.74s2.01,1.02,3.46.65c.14-.03.28-.07.43-.11.15-.04.29-.08.43-.11l.28,1.14c-.15.03-.31.07-.47.11-.16.04-.32.08-.47.11-1.89.46-3.38.14-4.47-.95-1.09-1.09-1.63-2.62-1.63-4.58V14.71Z"/>
    <path class="cls-1" d="m464.64,14.99c-.32,0-.6-.12-.84-.35-.24-.24-.35-.52-.35-.84,0-.34.12-.62.35-.85.24-.23.52-.34.84-.34s.62.11.85.34.34.51.34.85-.11.6-.34.84c-.23.24-.51.35-.85.35Zm-.56,34.8v-28.34h1.17v28.34h-1.17Z"/>
    <path class="cls-1" d="m483.05,50.4c-1.67,0-3.15-.28-4.44-.84s-2.34-1.37-3.16-2.42c-.82-1.06-1.4-2.34-1.74-3.84l1.17-.28c.42,2.01,1.33,3.55,2.71,4.61,1.38,1.06,3.2,1.6,5.45,1.6,2.45,0,4.44-.61,5.97-1.83s2.29-2.8,2.29-4.77c0-1.47-.46-2.7-1.38-3.7-.92-1-2.29-1.72-4.09-2.18l-4.41-1.12c-2.18-.54-3.83-1.43-4.96-2.66s-1.69-2.73-1.69-4.49c0-1.49.37-2.79,1.12-3.9.74-1.12,1.77-1.99,3.09-2.61,1.32-.62,2.84-.94,4.56-.94,1.45,0,2.75.24,3.88.71,1.13.47,2.1,1.18,2.9,2.13.8.95,1.43,2.13,1.89,3.55l-1.17.3c-.58-1.84-1.48-3.22-2.73-4.14-1.24-.92-2.83-1.38-4.78-1.38-2.26,0-4.1.57-5.5,1.72-1.4,1.15-2.1,2.67-2.1,4.56,0,1.47.47,2.72,1.41,3.74s2.36,1.78,4.27,2.27l4.46,1.12c2.06.52,3.64,1.39,4.74,2.59s1.65,2.68,1.65,4.44c0,1.54-.4,2.89-1.2,4.06-.8,1.17-1.91,2.08-3.33,2.73s-3.05.98-4.89.98Z"/>
    <path class="cls-1" d="m507.33,21.45v1.17h-11.2v-1.17h11.2Zm-7.05-6.74h1.17v29.68c0,1.69.43,2.94,1.28,3.74s2.01,1.02,3.46.65c.14-.03.28-.07.43-.11.15-.04.29-.08.43-.11l.28,1.14c-.15.03-.31.07-.47.11-.16.04-.32.08-.47.11-1.89.46-3.38.14-4.47-.95-1.09-1.09-1.63-2.62-1.63-4.58V14.71Z"/>
    <path class="cls-1" d="m520.61,50.4c-1.67,0-3.15-.28-4.44-.84s-2.34-1.37-3.16-2.42c-.82-1.06-1.4-2.34-1.74-3.84l1.17-.28c.42,2.01,1.33,3.55,2.71,4.61,1.38,1.06,3.2,1.6,5.45,1.6,2.45,0,4.44-.61,5.97-1.83s2.29-2.8,2.29-4.77c0-1.47-.46-2.7-1.38-3.7-.92-1-2.29-1.72-4.09-2.18l-4.41-1.12c-2.18-.54-3.83-1.43-4.96-2.66s-1.69-2.73-1.69-4.49c0-1.49.37-2.79,1.12-3.9.74-1.12,1.77-1.99,3.09-2.61,1.32-.62,2.84-.94,4.56-.94,1.45,0,2.75.24,3.88.71,1.13.47,2.1,1.18,2.9,2.13.8.95,1.43,2.13,1.89,3.55l-1.17.3c-.58-1.84-1.48-3.22-2.73-4.14-1.24-.92-2.83-1.38-4.78-1.38-2.26,0-4.1.57-5.5,1.72-1.4,1.15-2.1,2.67-2.1,4.56,0,1.47.47,2.72,1.41,3.74s2.36,1.78,4.27,2.27l4.46,1.12c2.06.52,3.64,1.39,4.74,2.59s1.65,2.68,1.65,4.44c0,1.54-.4,2.89-1.2,4.06-.8,1.17-1.91,2.08-3.33,2.73s-3.05.98-4.89.98Z"/>
  </g>
</svg>