<?xml version="1.0" encoding="UTF-8"?>
<svg id="Calque_2" data-name="Calque 2" xmlns="http://www.w3.org/2000/svg" viewBox="0 0 617.84 82.03">
  <defs>
    <style>
      .cls-1 {
        fill: #bcbcbc;
      }
    </style>
  </defs>
  <g>
    <path class="cls-1" d="m93.63,2.24c-1.22.41-1.42,1.02-1.42,1.83v50.07c0,1.02.81,1.83,1.63,1.83h43.76c8.75,0,15.88-7.12,15.88-15.88s-7.12-15.88-15.88-15.88c-2.04,0-4.07.41-6.11,1.22-1.22-14.25-13.23-25.44-27.68-25.44-3.66.2-7.12,1.02-10.18,2.24m-6.51,3.46l-.61,35.62.61,12.82c0,1.02.81,1.63,1.83,1.63s1.63-.81,1.83-1.83h0l.81-12.82-.81-35.62c0-1.02-.81-1.63-1.83-1.63s-1.83.81-1.83,1.83m-5.29,3.05l-.61,32.57.61,13.03c0,.81.81,1.63,1.63,1.63s1.63-.81,1.63-1.63h0l.61-13.03-.61-32.57c0-.81-.81-1.63-1.63-1.63-1.02,0-1.63.61-1.63,1.63m-15.88,3.26l-.81,29.11.81,13.43c0,.81.61,1.22,1.22,1.22s1.22-.61,1.22-1.22h0l.81-13.43-.81-29.11c0-.81-.61-1.22-1.22-1.22s-1.22.61-1.22,1.22m5.29.81l-.81,28.5.81,13.23c0,.81.61,1.42,1.42,1.42s1.42-.61,1.42-1.42h0l.81-13.23-.81-28.5c0-.81-.61-1.42-1.42-1.42s-1.42.61-1.42,1.42m-10.38.2l-.81,28.29.81,13.43c0,.61.61,1.22,1.22,1.22s1.22-.61,1.22-1.22l1.02-13.43-1.02-28.29c0-.61-.61-1.22-1.22-1.22-.61,0-1.22.61-1.22,1.22m15.67.81l-.61,27.48.61,13.23c0,.81.61,1.42,1.42,1.42s1.42-.61,1.42-1.42h0l.81-13.23-.81-27.48c0-.81-.61-1.42-1.42-1.42s-1.42.61-1.42,1.42m-20.76,1.42l-1.02,26.05,1.02,13.64c0,.61.41,1.02,1.02,1.02s1.02-.41,1.02-1.02l1.02-13.64-1.02-26.05c0-.61-.41-1.02-1.02-1.02-.61-.2-1.02.41-1.02,1.02m-5.09,4.68l-1.02,21.17,1.02,13.64c0,.61.41,1.02,1.02,1.02s1.02-.41,1.02-1.02h0l1.22-13.64-1.22-21.17c0-.61-.41-1.02-1.02-1.02s-1.02.61-1.02,1.02m-10.18,7.33l-1.22,14.05,1.22,13.64c0,.41.41.81.81.81s.81-.41.81-.81l1.22-13.64-1.22-14.05c0-.41-.41-.81-.81-.81s-.81.41-.81.81m-4.89.2l-1.22,13.64,1.22,13.23c0,.41.41.61.61.61s.61-.2.61-.61l1.42-13.23-1.42-13.64c0-.41-.41-.61-.61-.61s-.61.41-.61.61m9.97.61l-1.02,13.03,1.02,13.64c0,.41.41.81.81.81s.81-.41.81-.81l1.22-13.64-1.22-13.03c0-.41-.41-.81-.81-.81s-.81.41-.81.81m-15.06,1.63l-1.22,11.6,1.22,11.2c0,.2.2.61.61.61s.41-.2.61-.61l1.42-11.2-1.42-11.6c0-.41-.2-.61-.61-.61s-.41.2-.61.61m-4.68,4.27l-1.02,7.12,1.02,6.92c0,.2.2.41.61.41s.41-.2.41-.41l1.02-6.92-1.02-7.12c0-.2-.2-.41-.41-.41s-.61.2-.61.41"/>
    <path class="cls-1" d="m124.37,72.46c0,5.5,2.85,9.36,7.94,9.36s7.94-3.87,7.94-9.36-3.05-9.36-7.94-9.36-7.94,3.87-7.94,9.36m3.87,0c0-3.26,1.22-5.9,4.27-5.9s4.27,2.44,4.27,5.9-1.22,5.7-4.27,5.7-4.27-2.44-4.27-5.7m-34.6,0c0,5.7,3.26,9.36,7.94,9.36,3.26,0,5.5-1.63,6.72-4.07l-3.05-1.83c-1.02,1.63-2.04,2.24-3.66,2.24-2.65,0-4.27-2.44-4.27-5.7,0-3.46,1.63-5.9,4.27-5.9,1.63,0,2.65.81,3.26,2.04l3.46-1.63c-1.22-2.44-3.26-4.07-6.72-4.07-4.48.2-7.94,4.07-7.94,9.57m-76.33,0c0,5.5,2.85,9.36,7.94,9.36s7.94-3.87,7.94-9.36-3.05-9.36-7.94-9.36-7.94,3.87-7.94,9.36m3.66,0c0-3.26,1.22-5.9,4.27-5.9s4.27,2.44,4.27,5.9-1.22,5.7-4.27,5.7-4.27-2.44-4.27-5.7M.81,68.39c0,3.66,2.44,4.68,5.7,5.5,3.46.81,4.07,1.22,4.07,2.44,0,1.42-1.02,2.04-3.26,2.04-1.83,0-3.46-.61-4.68-2.04l-2.65,2.44c1.42,2.04,4.07,3.26,7.12,3.26,5.09,0,7.12-2.44,7.12-5.9,0-4.07-3.26-4.89-6.11-5.7s-3.66-1.02-3.66-2.24c0-.81.61-1.63,2.65-1.63,1.63,0,3.05.61,4.07,1.83l2.65-2.65c-1.63-1.83-3.87-2.85-6.72-2.85-3.46.2-6.31,2.24-6.31,5.5m162.44-5.09v18.32h5.5c4.68,0,9.36-2.65,9.36-9.16s-3.87-9.16-9.16-9.16h-5.7Zm3.66,3.66h2.04c3.87,0,5.5,1.83,5.5,5.7,0,3.26-1.83,5.5-5.5,5.5h-1.83v-11.2h-.2Zm-11.81-3.66v10.18c0,2.85-1.42,4.68-3.66,4.68s-3.66-1.83-3.66-4.68v-10.18h-3.66v10.18c0,5.29,3.05,8.35,7.33,8.35,4.68,0,7.33-3.05,7.33-8.35v-10.18h-3.66Zm-43.36,0v18.32h10.99v-3.66h-7.33v-14.66h-3.66Zm-36.23,0v18.32h5.5c4.68,0,9.36-2.65,9.36-9.16s-3.87-9.16-9.16-9.16h-5.7Zm3.66,3.66h2.04c3.87,0,5.5,1.83,5.5,5.7,0,3.26-1.83,5.5-5.7,5.5h-1.83v-11.2Zm-11.81-3.66v11.81c-.2-.41-.81-1.42-1.22-2.04l-6.51-9.77h-3.46v18.32h3.66v-12.21c.2.41.81,1.42,1.22,2.04l6.72,9.97h3.26v-18.32h-3.66v.2Zm-19.54,0v10.18c0,2.85-1.42,4.68-3.66,4.68s-3.66-1.83-3.66-4.68v-10.18h-3.66v10.18c0,5.29,3.05,8.35,7.33,8.35,4.68,0,7.33-3.05,7.33-8.35v-10.18h-3.66Z"/>
  </g>
  <g>
    <path class="cls-1" d="m209.73,70.36l14.12-37.77h1.6l14.14,37.77h-1.24l-10.95-29.25c-.51-1.35-1.01-2.7-1.51-4.06-.5-1.35-.99-2.7-1.48-4.06h.46c-.49,1.35-.98,2.7-1.48,4.06-.5,1.35-1,2.7-1.51,4.06l-10.9,29.25h-1.24Zm5.55-12.57v-1.17h18.76v1.17h-18.76Z"/>
    <path class="cls-1" d="m255.46,70.97c-2.21,0-4.14-.64-5.78-1.93-1.64-1.28-2.9-3.04-3.79-5.26-.89-2.22-1.33-4.73-1.33-7.52s.45-5.26,1.34-7.48c.9-2.21,2.16-3.96,3.8-5.25s3.56-1.93,5.75-1.93c1.5,0,2.89.31,4.17.92,1.28.62,2.39,1.5,3.33,2.65s1.66,2.51,2.13,4.08h.15v-16.68h1.17v37.77h-1.17v-7.1h-.15c-.49,1.57-1.2,2.94-2.14,4.09-.94,1.16-2.04,2.05-3.31,2.67-1.27.62-2.66.94-4.18.94Zm0-1.17c2.01,0,3.75-.6,5.21-1.79,1.46-1.19,2.59-2.81,3.38-4.85.79-2.04,1.19-4.34,1.19-6.89s-.4-4.85-1.2-6.88c-.8-2.04-1.94-3.65-3.4-4.83-1.46-1.18-3.19-1.77-5.18-1.77s-3.7.59-5.16,1.77c-1.46,1.18-2.59,2.79-3.38,4.83-.79,2.04-1.19,4.33-1.19,6.88s.4,4.85,1.19,6.89c.79,2.04,1.92,3.66,3.37,4.85s3.18,1.79,5.17,1.79Z"/>
    <path class="cls-1" d="m285.04,70.36l-10.82-28.34h1.22l7.58,19.82c.49,1.28.97,2.58,1.44,3.88.47,1.3.97,2.59,1.5,3.88h-.3c.52-1.28,1.02-2.58,1.5-3.88.47-1.3.95-2.59,1.44-3.88l7.58-19.82h1.22l-10.82,28.34h-1.52Z"/>
    <path class="cls-1" d="m311.13,70.97c-1.56,0-2.99-.32-4.31-.96-1.32-.64-2.38-1.58-3.17-2.81s-1.19-2.73-1.19-4.49c0-.96.15-1.87.46-2.71.3-.84.85-1.61,1.62-2.29.78-.68,1.86-1.28,3.26-1.77,1.39-.5,3.18-.88,5.36-1.13,1.32-.15,2.56-.33,3.71-.52,1.16-.19,2.09-.49,2.81-.89.72-.4,1.08-.96,1.08-1.69v-1.67c0-1.47-.33-2.75-.99-3.83-.66-1.08-1.59-1.92-2.79-2.52-1.2-.6-2.61-.9-4.23-.9-1.33,0-2.56.2-3.68.6-1.12.4-2.07.97-2.88,1.71-.8.74-1.41,1.65-1.81,2.71l-1.12-.46c.46-1.18,1.14-2.2,2.07-3.05.92-.85,2.02-1.51,3.3-1.98,1.28-.46,2.65-.7,4.12-.7s2.72.21,3.85.63c1.13.42,2.1,1.01,2.89,1.77.79.76,1.4,1.65,1.81,2.67.41,1.02.62,2.13.62,3.33v20.33h-1.17v-5.73h-.15c-.57,1.27-1.33,2.37-2.28,3.32-.95.95-2.03,1.69-3.24,2.22-1.22.53-2.54.8-3.95.8Zm0-1.17c1.79,0,3.41-.49,4.87-1.46s2.61-2.33,3.47-4.07c.86-1.74,1.29-3.75,1.29-6.03v-4.26c-.35.25-.77.48-1.25.68-.48.2-1.02.38-1.62.53s-1.26.28-1.98.39c-.72.11-1.48.22-2.29.32-2.53.29-4.53.74-5.98,1.34-1.45.61-2.48,1.37-3.09,2.27s-.91,1.96-.91,3.18c0,1.42.33,2.66.99,3.73.66,1.06,1.56,1.89,2.7,2.48s2.41.89,3.82.89Z"/>
    <path class="cls-1" d="m333.13,51.35v19.01h-1.17v-28.34h1.17v6.08h-.3c.61-2.16,1.81-3.79,3.61-4.87,1.8-1.08,3.77-1.62,5.92-1.62,1.94,0,3.65.41,5.13,1.23s2.64,1.96,3.49,3.41c.84,1.45,1.27,3.15,1.27,5.1v19.01h-1.17v-19.01c0-2.57-.81-4.64-2.43-6.21s-3.72-2.36-6.29-2.36c-1.76,0-3.33.37-4.73,1.1s-2.49,1.75-3.3,3.04-1.2,2.77-1.2,4.42Z"/>
    <path class="cls-1" d="m372.32,70.77c-2.23,0-4.23-.63-6.01-1.9s-3.18-3-4.21-5.2c-1.03-2.2-1.55-4.69-1.55-7.48s.52-5.28,1.55-7.48c1.03-2.2,2.43-3.93,4.21-5.2s3.78-1.9,6.01-1.9c1.57,0,2.94.28,4.11.84,1.17.56,2.14,1.21,2.92,1.96.78.75,1.37,1.44,1.79,2.05.41.62.65.98.72,1.1l-1.01.58c-.07-.12-.29-.46-.66-1.03s-.91-1.18-1.61-1.85-1.57-1.25-2.6-1.75c-1.03-.5-2.25-.75-3.65-.75-1.99,0-3.79.58-5.39,1.74-1.6,1.16-2.87,2.74-3.8,4.75-.94,2.01-1.41,4.32-1.41,6.92s.47,4.91,1.41,6.93,2.21,3.6,3.8,4.75c1.6,1.15,3.39,1.72,5.39,1.72,1.4,0,2.63-.25,3.69-.75s1.94-1.09,2.65-1.76c.71-.68,1.25-1.3,1.63-1.86s.6-.9.67-1l1.01.56c-.07.12-.31.49-.74,1.1-.42.62-1.03,1.3-1.83,2.05-.79.75-1.78,1.41-2.97,1.98s-2.56.85-4.13.85Z"/>
    <path class="cls-1" d="m400.63,70.97c-2.47,0-4.63-.65-6.48-1.94-1.85-1.29-3.29-3.05-4.31-5.27-1.02-2.22-1.53-4.72-1.53-7.49s.52-5.26,1.55-7.48c1.03-2.21,2.43-3.96,4.21-5.25s3.78-1.93,6.01-1.93c1.66,0,3.19.35,4.59,1.05,1.4.7,2.63,1.68,3.67,2.94,1.05,1.26,1.86,2.73,2.43,4.42s.86,3.53.86,5.53v.66h-22.71v-1.17h22.08l-.51.51c0-2.37-.45-4.52-1.36-6.45-.9-1.93-2.14-3.47-3.7-4.61-1.56-1.14-3.35-1.71-5.36-1.71s-3.72.58-5.32,1.74c-1.61,1.16-2.89,2.73-3.84,4.71-.96,1.99-1.43,4.23-1.43,6.73v.15c0,2.48.44,4.76,1.31,6.83s2.14,3.73,3.8,4.98c1.66,1.25,3.68,1.88,6.05,1.88,1.76,0,3.23-.31,4.41-.92s2.14-1.33,2.86-2.14c.73-.81,1.26-1.5,1.6-2.05l.96.66c-.42.71-1.05,1.5-1.89,2.38s-1.91,1.64-3.22,2.28c-1.31.64-2.89.96-4.73.96Z"/>
    <path class="cls-1" d="m428.92,70.97c-2.21,0-4.14-.64-5.78-1.93-1.64-1.28-2.9-3.04-3.79-5.26-.89-2.22-1.33-4.73-1.33-7.52s.45-5.26,1.34-7.48,2.16-3.96,3.8-5.25c1.64-1.28,3.56-1.93,5.75-1.93,1.5,0,2.89.31,4.17.92,1.28.62,2.39,1.5,3.33,2.65s1.66,2.51,2.13,4.08h.15v-16.68h1.17v37.77h-1.17v-7.1h-.15c-.49,1.57-1.2,2.94-2.14,4.09-.94,1.16-2.04,2.05-3.31,2.67s-2.66.94-4.18.94Zm0-1.17c2.01,0,3.75-.6,5.21-1.79s2.59-2.81,3.38-4.85c.79-2.04,1.19-4.34,1.19-6.89s-.4-4.85-1.2-6.88-1.93-3.65-3.4-4.83-3.19-1.77-5.18-1.77-3.7.59-5.16,1.77c-1.46,1.18-2.59,2.79-3.38,4.83-.79,2.04-1.19,4.33-1.19,6.88s.4,4.85,1.19,6.89c.79,2.04,1.92,3.66,3.37,4.85,1.45,1.19,3.18,1.79,5.17,1.79Z"/>
    <path class="cls-1" d="m475.26,70.97c-2.3,0-4.3-.4-6.02-1.2-1.71-.8-3.07-1.92-4.07-3.35s-1.55-3.07-1.67-4.93h1.17c.12,1.64.62,3.08,1.52,4.32.9,1.24,2.12,2.21,3.66,2.9,1.55.69,3.35,1.04,5.41,1.04,2.18,0,4.08-.38,5.7-1.13,1.62-.75,2.88-1.8,3.79-3.16.9-1.35,1.36-2.92,1.36-4.69,0-1.35-.3-2.54-.89-3.56s-1.52-1.93-2.78-2.73c-1.26-.79-2.91-1.5-4.96-2.13l-4.26-1.32c-2.97-.93-5.2-2.16-6.67-3.7-1.47-1.54-2.21-3.4-2.21-5.58,0-1.86.49-3.52,1.46-4.99s2.3-2.63,3.99-3.47c1.69-.84,3.61-1.27,5.75-1.27s4.06.43,5.69,1.29,2.93,2.04,3.89,3.54c.96,1.5,1.5,3.22,1.62,5.16h-1.17c-.19-2.57-1.17-4.68-2.97-6.34-1.79-1.66-4.15-2.48-7.07-2.48-1.91,0-3.62.37-5.15,1.1-1.52.74-2.72,1.75-3.59,3.04-.87,1.29-1.31,2.77-1.31,4.42,0,1.27.29,2.41.86,3.43s1.45,1.92,2.64,2.69c1.18.77,2.67,1.43,4.46,1.99l4.31,1.32c1.62.51,3.03,1.07,4.22,1.7s2.18,1.33,2.95,2.1c.78.78,1.36,1.64,1.74,2.6.38.96.57,2.01.57,3.18,0,1.96-.5,3.71-1.51,5.25-1,1.54-2.41,2.75-4.21,3.62-1.8.88-3.9,1.32-6.3,1.32Z"/>
    <path class="cls-1" d="m506.89,70.97c-2.47,0-4.63-.65-6.48-1.94-1.85-1.29-3.29-3.05-4.31-5.27-1.02-2.22-1.53-4.72-1.53-7.49s.52-5.26,1.55-7.48c1.03-2.21,2.43-3.96,4.21-5.25s3.78-1.93,6.01-1.93c1.66,0,3.19.35,4.59,1.05,1.4.7,2.63,1.68,3.67,2.94,1.05,1.26,1.86,2.73,2.43,4.42s.86,3.53.86,5.53v.66h-22.71v-1.17h22.08l-.51.51c0-2.37-.45-4.52-1.36-6.45-.9-1.93-2.14-3.47-3.7-4.61-1.56-1.14-3.35-1.71-5.36-1.71s-3.72.58-5.32,1.74c-1.61,1.16-2.89,2.73-3.84,4.71-.96,1.99-1.43,4.23-1.43,6.73v.15c0,2.48.44,4.76,1.31,6.83s2.14,3.73,3.8,4.98c1.66,1.25,3.68,1.88,6.05,1.88,1.76,0,3.23-.31,4.41-.92s2.14-1.33,2.86-2.14c.73-.81,1.26-1.5,1.6-2.05l.96.66c-.42.71-1.05,1.5-1.89,2.38s-1.91,1.64-3.22,2.28c-1.31.64-2.89.96-4.73.96Z"/>
    <path class="cls-1" d="m532.95,70.97c-1.56,0-2.99-.32-4.31-.96-1.32-.64-2.38-1.58-3.17-2.81s-1.19-2.73-1.19-4.49c0-.96.15-1.87.46-2.71.3-.84.85-1.61,1.62-2.29.78-.68,1.86-1.28,3.26-1.77,1.39-.5,3.18-.88,5.36-1.13,1.32-.15,2.56-.33,3.71-.52,1.16-.19,2.09-.49,2.81-.89.72-.4,1.08-.96,1.08-1.69v-1.67c0-1.47-.33-2.75-.99-3.83-.66-1.08-1.59-1.92-2.79-2.52-1.2-.6-2.61-.9-4.23-.9-1.33,0-2.56.2-3.68.6-1.12.4-2.07.97-2.88,1.71-.8.74-1.41,1.65-1.81,2.71l-1.12-.46c.46-1.18,1.14-2.2,2.07-3.05.92-.85,2.02-1.51,3.3-1.98,1.28-.46,2.65-.7,4.12-.7s2.72.21,3.85.63c1.13.42,2.1,1.01,2.89,1.77.79.76,1.4,1.65,1.81,2.67.41,1.02.62,2.13.62,3.33v20.33h-1.17v-5.73h-.15c-.57,1.27-1.33,2.37-2.28,3.32-.95.95-2.03,1.69-3.24,2.22-1.22.53-2.54.8-3.95.8Zm0-1.17c1.79,0,3.41-.49,4.87-1.46s2.61-2.33,3.47-4.07c.86-1.74,1.29-3.75,1.29-6.03v-4.26c-.35.25-.77.48-1.25.68-.48.2-1.02.38-1.62.53s-1.26.28-1.98.39c-.72.11-1.48.22-2.29.32-2.53.29-4.53.74-5.98,1.34-1.45.61-2.48,1.37-3.09,2.27s-.91,1.96-.91,3.18c0,1.42.33,2.66.99,3.73.66,1.06,1.56,1.89,2.7,2.48s2.41.89,3.82.89Z"/>
    <path class="cls-1" d="m553.79,70.36v-28.34h1.17v4.51h.15c.68-1.47,1.77-2.65,3.28-3.54,1.51-.89,3.24-1.33,5.18-1.33h.61v1.17h-.61c-1.66,0-3.13.37-4.44,1.1-1.3.74-2.32,1.74-3.07,3.02-.74,1.28-1.12,2.74-1.12,4.4v19.01h-1.17Z"/>
    <path class="cls-1" d="m579.84,70.77c-2.23,0-4.23-.63-6.01-1.9s-3.18-3-4.21-5.2c-1.03-2.2-1.55-4.69-1.55-7.48s.52-5.28,1.55-7.48c1.03-2.2,2.43-3.93,4.21-5.2s3.78-1.9,6.01-1.9c1.57,0,2.94.28,4.11.84,1.17.56,2.14,1.21,2.92,1.96.78.75,1.37,1.44,1.79,2.05.41.62.65.98.72,1.1l-1.01.58c-.07-.12-.29-.46-.66-1.03s-.91-1.18-1.61-1.85-1.57-1.25-2.6-1.75c-1.03-.5-2.25-.75-3.65-.75-1.99,0-3.79.58-5.39,1.74-1.6,1.16-2.87,2.74-3.8,4.75-.94,2.01-1.41,4.32-1.41,6.92s.47,4.91,1.41,6.93,2.21,3.6,3.8,4.75c1.6,1.15,3.39,1.72,5.39,1.72,1.4,0,2.63-.25,3.69-.75s1.94-1.09,2.65-1.76c.71-.68,1.25-1.3,1.63-1.86s.6-.9.67-1l1.01.56c-.07.12-.31.49-.74,1.1-.42.62-1.03,1.3-1.83,2.05-.79.75-1.78,1.41-2.97,1.98s-2.56.85-4.13.85Z"/>
    <path class="cls-1" d="m598.73,51.35v19.01h-1.17v-37.77h1.17v15.51h-.3c.61-2.16,1.81-3.79,3.61-4.87,1.8-1.08,3.77-1.62,5.92-1.62,1.94,0,3.65.41,5.13,1.23s2.64,1.96,3.49,3.41c.84,1.45,1.27,3.15,1.27,5.1v19.01h-1.17v-19.01c0-2.57-.81-4.64-2.43-6.21s-3.72-2.36-6.29-2.36c-1.76,0-3.33.37-4.73,1.1s-2.49,1.75-3.3,3.04-1.2,2.77-1.2,4.42Z"/>
  </g>
</svg>