<svg xmlns="http://www.w3.org/2000/svg" width="280" height="280" viewBox="0 0 26 26"><path fill="#bcbcbc" fill-rule="evenodd" d="M2.25 13C2.25 7.063 7.063 2.25 13 2.25a.75.75 0 0 1 .586 1.219l-2 2.5a.75.75 0 0 1-1.172-.938l.903-1.128A9.251 9.251 0 0 0 3.75 13A9.25 9.25 0 1 0 16.7 4.52a.75.75 0 0 1 .6-1.375A10.752 10.752 0 0 1 23.75 13c0 5.937-4.813 10.75-10.75 10.75S2.25 18.937 2.25 13Zm9.075-4.176a.75.75 0 0 1 .425.676v7a.75.75 0 0 1-1.5 0v-5.44l-1.281 1.026a.75.75 0 0 1-.938-1.172l2.5-2a.75.75 0 0 1 .794-.09ZM15.25 10.25a1 1 0 0 0-1 1v3.5a1 1 0 1 0 2 0v-3.5a1 1 0 0 0-1-1Zm-2.5 1a2.5 2.5 0 0 1 5 0v3.5a2.5 2.5 0 0 1-5 0v-3.5Z" clip-rule="evenodd"/></svg>